<svg width="159" height="140" viewBox="0 0 159 140" fill="none" xmlns="http://www.w3.org/2000/svg">
<circle cx="82.5" cy="77.5" r="45.5" fill="#F5F5F5" stroke="black" stroke-width="4"/>
<path d="M0 125.49L146.633 -1.3113e-05L146.633 18.5L25 129L0 125.49Z" fill="#12FE1A"/>
<circle cx="73" cy="75" r="48" fill="#12FE1A" stroke="black" stroke-width="4"/>
<circle cx="73" cy="75" r="38" fill="#F5F5F5" stroke="black" stroke-width="4"/>
<path d="M42.3644 94.6059C41.7941 93.7634 41.9473 92.627 42.7202 91.9655L94.3556 47.7711C95.1847 47.0614 96.4297 47.1475 97.1533 47.9645L100.162 51.3615L103.092 54.9034C103.788 55.7444 103.681 56.988 102.851 57.6977L51.2201 101.888C50.4455 102.551 49.2961 102.526 48.5521 101.828L45.1633 98.653C45.0548 98.5513 44.9579 98.4378 44.8745 98.3146L42.3644 94.6059Z" fill="#12FE1A"/>
<path d="M8.5 126.5L146.67 5.62418" stroke="black"/>
<line x1="14.6699" y1="127.624" x2="146.67" y2="11.6244" stroke="black"/>
<mask id="path-8-outside-1_156_37" maskUnits="userSpaceOnUse" x="45" y="78" width="55" height="11" fill="black">
<rect fill="white" x="45" y="78" width="55" height="11"/>
<path d="M47.36 80.64C47.9733 80.1467 48.7833 79.9 49.79 79.9C50.7967 79.9 51.6033 80.15 52.21 80.65C52.8233 81.1433 53.13 81.84 53.13 82.74V84.3C53.13 85.2133 52.8267 85.91 52.22 86.39C51.62 86.8633 50.81 87.1 49.79 87.1C48.77 87.1 47.9567 86.8633 47.35 86.39C46.75 85.91 46.45 85.2133 46.45 84.3V82.74C46.45 81.8333 46.7533 81.1333 47.36 80.64ZM49.25 84.95C49.3833 85.0833 49.5633 85.15 49.79 85.15C50.0167 85.15 50.1967 85.0833 50.33 84.95C50.4633 84.8167 50.53 84.6133 50.53 84.34V82.66C50.53 82.3933 50.4633 82.1933 50.33 82.06C50.1967 81.92 50.0167 81.85 49.79 81.85C49.5633 81.85 49.3833 81.92 49.25 82.06C49.1167 82.1933 49.05 82.3933 49.05 82.66V84.34C49.05 84.6133 49.1167 84.8167 49.25 84.95ZM57.0781 83.55V84.65C57.0781 84.9833 57.2215 85.15 57.5081 85.15H58.4181C58.4915 85.15 58.5548 85.1767 58.6081 85.23C58.6615 85.2833 58.6881 85.3467 58.6881 85.42V86.73C58.6881 86.8033 58.6615 86.8667 58.6081 86.92C58.5548 86.9733 58.4915 87 58.4181 87H57.2881C55.6215 87 54.7881 86.2833 54.7881 84.85V83.55H53.9981C53.9248 83.55 53.8615 83.5233 53.8081 83.47C53.7548 83.4167 53.7281 83.3533 53.7281 83.28V82.07C53.7281 81.9967 53.7548 81.9333 53.8081 81.88C53.8615 81.8267 53.9248 81.8 53.9981 81.8H54.7881V80.17C54.7881 80.0967 54.8148 80.0333 54.8681 79.98C54.9215 79.9267 54.9848 79.9 55.0581 79.9H56.8081C56.8815 79.9 56.9448 79.9267 56.9981 79.98C57.0515 80.0333 57.0781 80.0967 57.0781 80.17V81.8H58.3381C58.4115 81.8 58.4748 81.8267 58.5281 81.88C58.5815 81.9333 58.6081 81.9967 58.6081 82.07V83.28C58.6081 83.3533 58.5815 83.4167 58.5281 83.47C58.4748 83.5233 58.4115 83.55 58.3381 83.55H57.0781ZM62.3906 83.55V84.65C62.3906 84.9833 62.534 85.15 62.8206 85.15H63.7306C63.804 85.15 63.8673 85.1767 63.9206 85.23C63.974 85.2833 64.0006 85.3467 64.0006 85.42V86.73C64.0006 86.8033 63.974 86.8667 63.9206 86.92C63.8673 86.9733 63.804 87 63.7306 87H62.6006C60.934 87 60.1006 86.2833 60.1006 84.85V83.55H59.3106C59.2373 83.55 59.174 83.5233 59.1206 83.47C59.0673 83.4167 59.0406 83.3533 59.0406 83.28V82.07C59.0406 81.9967 59.0673 81.9333 59.1206 81.88C59.174 81.8267 59.2373 81.8 59.3106 81.8H60.1006V80.17C60.1006 80.0967 60.1273 80.0333 60.1806 79.98C60.234 79.9267 60.2973 79.9 60.3706 79.9H62.1206C62.194 79.9 62.2573 79.9267 62.3106 79.98C62.364 80.0333 62.3906 80.0967 62.3906 80.17V81.8H63.6506C63.724 81.8 63.7873 81.8267 63.8406 81.88C63.894 81.9333 63.9206 81.9967 63.9206 82.07V83.28C63.9206 83.3533 63.894 83.4167 63.8406 83.47C63.7873 83.5233 63.724 83.55 63.6506 83.55H62.3906ZM69.9831 84.99H67.0031V85.04C67.0031 85.4467 67.1331 85.65 67.3931 85.65C67.4665 85.65 67.5565 85.5967 67.6631 85.49C67.7698 85.3833 67.8865 85.33 68.0131 85.33H69.9031C70.0498 85.33 70.1231 85.4033 70.1231 85.55C70.1231 85.8767 69.8765 86.2167 69.3831 86.57C68.8965 86.9233 68.2331 87.1 67.3931 87.1C66.5598 87.1 65.8765 86.8833 65.3431 86.45C64.8165 86.01 64.5531 85.4067 64.5531 84.64V84.16C64.5531 83.4333 64.8231 82.8433 65.3631 82.39C65.9031 81.93 66.6098 81.7 67.4831 81.7C68.3631 81.7 69.0431 81.9567 69.5231 82.47C70.0098 82.9833 70.2531 83.6333 70.2531 84.42V84.72C70.2531 84.7933 70.2265 84.8567 70.1731 84.91C70.1198 84.9633 70.0565 84.99 69.9831 84.99ZM67.8031 83.7C67.8031 83.3 67.6698 83.1 67.4031 83.1C67.1365 83.1 67.0031 83.3 67.0031 83.7V83.74H67.8031V83.7ZM73.2896 82.07V82.42C73.7563 82.0067 74.2763 81.8 74.8496 81.8H75.3296C75.4029 81.8 75.4663 81.8267 75.5196 81.88C75.5729 81.9333 75.5996 81.9967 75.5996 82.07V83.63C75.5996 83.7033 75.5729 83.7667 75.5196 83.82C75.4663 83.8733 75.4029 83.9 75.3296 83.9H74.0396C73.8596 83.9 73.7163 83.9433 73.6096 84.03C73.5096 84.11 73.4529 84.22 73.4396 84.36V86.73C73.4396 86.8033 73.4129 86.8667 73.3596 86.92C73.3063 86.9733 73.2429 87 73.1696 87H71.2696C71.1963 87 71.1329 86.9733 71.0796 86.92C71.0263 86.8667 70.9996 86.8033 70.9996 86.73V82.07C70.9996 81.9967 71.0263 81.9333 71.0796 81.88C71.1329 81.8267 71.1963 81.8 71.2696 81.8H73.0196C73.0929 81.8 73.1563 81.8267 73.2096 81.88C73.2629 81.9333 73.2896 81.9967 73.2896 82.07ZM76.2523 84.79V84C76.2523 83.2533 76.4523 82.6833 76.8523 82.29C77.2523 81.8967 77.739 81.7 78.3123 81.7C78.8923 81.7 79.3557 81.8567 79.7023 82.17V80.17C79.7023 80.0967 79.729 80.0333 79.7823 79.98C79.8357 79.9267 79.899 79.9 79.9723 79.9H81.8223C81.8957 79.9 81.959 79.9267 82.0123 79.98C82.0657 80.0333 82.0923 80.0967 82.0923 80.17V86.73C82.0923 86.8033 82.0657 86.8667 82.0123 86.92C81.959 86.9733 81.8957 87 81.8223 87H80.1223C80.049 87 79.9857 86.9733 79.9323 86.92C79.879 86.8667 79.8523 86.8033 79.8523 86.73V86.43C79.5057 86.8767 79.0157 87.1 78.3823 87.1C77.749 87.1 77.2357 86.9133 76.8423 86.54C76.449 86.16 76.2523 85.5767 76.2523 84.79ZM79.7023 84.73V83.99C79.6823 83.6567 79.5157 83.49 79.2023 83.49C78.869 83.49 78.7023 83.6833 78.7023 84.07V84.73C78.7023 85.1167 78.869 85.31 79.2023 85.31C79.5357 85.31 79.7023 85.1167 79.7023 84.73ZM82.9418 85.51C82.9418 84.61 83.6718 84.0333 85.1318 83.78L86.1918 83.61C86.1918 83.41 86.1751 83.2767 86.1418 83.21C86.1085 83.1367 86.0285 83.1 85.9018 83.1C85.7818 83.1 85.6618 83.1533 85.5418 83.26C85.4218 83.3667 85.3085 83.42 85.2018 83.42H83.5018C83.3551 83.42 83.2818 83.35 83.2818 83.21C83.2818 83.0633 83.3318 82.91 83.4318 82.75C83.5385 82.5833 83.6885 82.42 83.8818 82.26C84.0818 82.1 84.3585 81.9667 84.7118 81.86C85.0718 81.7533 85.4718 81.7 85.9118 81.7C86.8051 81.7 87.4751 81.8867 87.9218 82.26C88.3685 82.6333 88.5918 83.1667 88.5918 83.86V86.73C88.5918 86.8033 88.5651 86.8667 88.5118 86.92C88.4585 86.9733 88.3951 87 88.3218 87H86.5718C86.4985 87 86.4351 86.9733 86.3818 86.92C86.3285 86.8667 86.3018 86.8033 86.3018 86.73V86.45C85.9885 86.8833 85.5318 87.1 84.9318 87.1C84.3318 87.1 83.8485 86.95 83.4818 86.65C83.1218 86.3433 82.9418 85.9633 82.9418 85.51ZM85.5718 85.62C86.0051 85.62 86.2218 85.36 86.2218 84.84L85.6318 84.97C85.3385 85.0367 85.1918 85.16 85.1918 85.34C85.1918 85.42 85.2251 85.4867 85.2918 85.54C85.3585 85.5933 85.4518 85.62 85.5718 85.62ZM95.3671 83.49C95.2604 83.49 95.1671 83.53 95.0871 83.61C95.0138 83.69 94.9771 83.81 94.9771 83.97V86.73C94.9771 86.8033 94.9504 86.8667 94.8971 86.92C94.8438 86.9733 94.7804 87 94.7071 87H92.9471C92.8738 87 92.8104 86.9733 92.7571 86.92C92.7038 86.8667 92.6771 86.8033 92.6771 86.73V84.04C92.6771 83.6733 92.5438 83.49 92.2771 83.49C92.1638 83.49 92.0671 83.5333 91.9871 83.62C91.9138 83.7 91.8771 83.8133 91.8771 83.96V86.73C91.8771 86.8033 91.8504 86.8667 91.7971 86.92C91.7438 86.9733 91.6804 87 91.6071 87H89.8071C89.7338 87 89.6704 86.9733 89.6171 86.92C89.5638 86.8667 89.5371 86.8033 89.5371 86.73V82.07C89.5371 81.9967 89.5638 81.9333 89.6171 81.88C89.6704 81.8267 89.7338 81.8 89.8071 81.8H91.4571C91.5304 81.8 91.5938 81.8267 91.6471 81.88C91.7004 81.9333 91.7271 81.9967 91.7271 82.07V82.4C91.8604 82.2267 92.0504 82.07 92.2971 81.93C92.5704 81.7767 92.8771 81.7 93.2171 81.7C93.9504 81.7 94.4438 81.9733 94.6971 82.52C94.8571 82.2867 95.0771 82.0933 95.3571 81.94C95.6371 81.78 95.9271 81.7 96.2271 81.7C96.7671 81.7 97.2071 81.89 97.5471 82.27C97.8938 82.65 98.0671 83.2167 98.0671 83.97V86.73C98.0671 86.8033 98.0404 86.8667 97.9871 86.92C97.9338 86.9733 97.8704 87 97.7971 87H96.0371C95.9638 87 95.9004 86.9733 95.8471 86.92C95.7938 86.8667 95.7671 86.8033 95.7671 86.73V84.04C95.7671 83.6733 95.6338 83.49 95.3671 83.49Z"/>
</mask>
<path d="M47.36 80.64C47.9733 80.1467 48.7833 79.9 49.79 79.9C50.7967 79.9 51.6033 80.15 52.21 80.65C52.8233 81.1433 53.13 81.84 53.13 82.74V84.3C53.13 85.2133 52.8267 85.91 52.22 86.39C51.62 86.8633 50.81 87.1 49.79 87.1C48.77 87.1 47.9567 86.8633 47.35 86.39C46.75 85.91 46.45 85.2133 46.45 84.3V82.74C46.45 81.8333 46.7533 81.1333 47.36 80.64ZM49.25 84.95C49.3833 85.0833 49.5633 85.15 49.79 85.15C50.0167 85.15 50.1967 85.0833 50.33 84.95C50.4633 84.8167 50.53 84.6133 50.53 84.34V82.66C50.53 82.3933 50.4633 82.1933 50.33 82.06C50.1967 81.92 50.0167 81.85 49.79 81.85C49.5633 81.85 49.3833 81.92 49.25 82.06C49.1167 82.1933 49.05 82.3933 49.05 82.66V84.34C49.05 84.6133 49.1167 84.8167 49.25 84.95ZM57.0781 83.55V84.65C57.0781 84.9833 57.2215 85.15 57.5081 85.15H58.4181C58.4915 85.15 58.5548 85.1767 58.6081 85.23C58.6615 85.2833 58.6881 85.3467 58.6881 85.42V86.73C58.6881 86.8033 58.6615 86.8667 58.6081 86.92C58.5548 86.9733 58.4915 87 58.4181 87H57.2881C55.6215 87 54.7881 86.2833 54.7881 84.85V83.55H53.9981C53.9248 83.55 53.8615 83.5233 53.8081 83.47C53.7548 83.4167 53.7281 83.3533 53.7281 83.28V82.07C53.7281 81.9967 53.7548 81.9333 53.8081 81.88C53.8615 81.8267 53.9248 81.8 53.9981 81.8H54.7881V80.17C54.7881 80.0967 54.8148 80.0333 54.8681 79.98C54.9215 79.9267 54.9848 79.9 55.0581 79.9H56.8081C56.8815 79.9 56.9448 79.9267 56.9981 79.98C57.0515 80.0333 57.0781 80.0967 57.0781 80.17V81.8H58.3381C58.4115 81.8 58.4748 81.8267 58.5281 81.88C58.5815 81.9333 58.6081 81.9967 58.6081 82.07V83.28C58.6081 83.3533 58.5815 83.4167 58.5281 83.47C58.4748 83.5233 58.4115 83.55 58.3381 83.55H57.0781ZM62.3906 83.55V84.65C62.3906 84.9833 62.534 85.15 62.8206 85.15H63.7306C63.804 85.15 63.8673 85.1767 63.9206 85.23C63.974 85.2833 64.0006 85.3467 64.0006 85.42V86.73C64.0006 86.8033 63.974 86.8667 63.9206 86.92C63.8673 86.9733 63.804 87 63.7306 87H62.6006C60.934 87 60.1006 86.2833 60.1006 84.85V83.55H59.3106C59.2373 83.55 59.174 83.5233 59.1206 83.47C59.0673 83.4167 59.0406 83.3533 59.0406 83.28V82.07C59.0406 81.9967 59.0673 81.9333 59.1206 81.88C59.174 81.8267 59.2373 81.8 59.3106 81.8H60.1006V80.17C60.1006 80.0967 60.1273 80.0333 60.1806 79.98C60.234 79.9267 60.2973 79.9 60.3706 79.9H62.1206C62.194 79.9 62.2573 79.9267 62.3106 79.98C62.364 80.0333 62.3906 80.0967 62.3906 80.17V81.8H63.6506C63.724 81.8 63.7873 81.8267 63.8406 81.88C63.894 81.9333 63.9206 81.9967 63.9206 82.07V83.28C63.9206 83.3533 63.894 83.4167 63.8406 83.47C63.7873 83.5233 63.724 83.55 63.6506 83.55H62.3906ZM69.9831 84.99H67.0031V85.04C67.0031 85.4467 67.1331 85.65 67.3931 85.65C67.4665 85.65 67.5565 85.5967 67.6631 85.49C67.7698 85.3833 67.8865 85.33 68.0131 85.33H69.9031C70.0498 85.33 70.1231 85.4033 70.1231 85.55C70.1231 85.8767 69.8765 86.2167 69.3831 86.57C68.8965 86.9233 68.2331 87.1 67.3931 87.1C66.5598 87.1 65.8765 86.8833 65.3431 86.45C64.8165 86.01 64.5531 85.4067 64.5531 84.64V84.16C64.5531 83.4333 64.8231 82.8433 65.3631 82.39C65.9031 81.93 66.6098 81.7 67.4831 81.7C68.3631 81.7 69.0431 81.9567 69.5231 82.47C70.0098 82.9833 70.2531 83.6333 70.2531 84.42V84.72C70.2531 84.7933 70.2265 84.8567 70.1731 84.91C70.1198 84.9633 70.0565 84.99 69.9831 84.99ZM67.8031 83.7C67.8031 83.3 67.6698 83.1 67.4031 83.1C67.1365 83.1 67.0031 83.3 67.0031 83.7V83.74H67.8031V83.7ZM73.2896 82.07V82.42C73.7563 82.0067 74.2763 81.8 74.8496 81.8H75.3296C75.4029 81.8 75.4663 81.8267 75.5196 81.88C75.5729 81.9333 75.5996 81.9967 75.5996 82.07V83.63C75.5996 83.7033 75.5729 83.7667 75.5196 83.82C75.4663 83.8733 75.4029 83.9 75.3296 83.9H74.0396C73.8596 83.9 73.7163 83.9433 73.6096 84.03C73.5096 84.11 73.4529 84.22 73.4396 84.36V86.73C73.4396 86.8033 73.4129 86.8667 73.3596 86.92C73.3063 86.9733 73.2429 87 73.1696 87H71.2696C71.1963 87 71.1329 86.9733 71.0796 86.92C71.0263 86.8667 70.9996 86.8033 70.9996 86.73V82.07C70.9996 81.9967 71.0263 81.9333 71.0796 81.88C71.1329 81.8267 71.1963 81.8 71.2696 81.8H73.0196C73.0929 81.8 73.1563 81.8267 73.2096 81.88C73.2629 81.9333 73.2896 81.9967 73.2896 82.07ZM76.2523 84.79V84C76.2523 83.2533 76.4523 82.6833 76.8523 82.29C77.2523 81.8967 77.739 81.7 78.3123 81.7C78.8923 81.7 79.3557 81.8567 79.7023 82.17V80.17C79.7023 80.0967 79.729 80.0333 79.7823 79.98C79.8357 79.9267 79.899 79.9 79.9723 79.9H81.8223C81.8957 79.9 81.959 79.9267 82.0123 79.98C82.0657 80.0333 82.0923 80.0967 82.0923 80.17V86.73C82.0923 86.8033 82.0657 86.8667 82.0123 86.92C81.959 86.9733 81.8957 87 81.8223 87H80.1223C80.049 87 79.9857 86.9733 79.9323 86.92C79.879 86.8667 79.8523 86.8033 79.8523 86.73V86.43C79.5057 86.8767 79.0157 87.1 78.3823 87.1C77.749 87.1 77.2357 86.9133 76.8423 86.54C76.449 86.16 76.2523 85.5767 76.2523 84.79ZM79.7023 84.73V83.99C79.6823 83.6567 79.5157 83.49 79.2023 83.49C78.869 83.49 78.7023 83.6833 78.7023 84.07V84.73C78.7023 85.1167 78.869 85.31 79.2023 85.31C79.5357 85.31 79.7023 85.1167 79.7023 84.73ZM82.9418 85.51C82.9418 84.61 83.6718 84.0333 85.1318 83.78L86.1918 83.61C86.1918 83.41 86.1751 83.2767 86.1418 83.21C86.1085 83.1367 86.0285 83.1 85.9018 83.1C85.7818 83.1 85.6618 83.1533 85.5418 83.26C85.4218 83.3667 85.3085 83.42 85.2018 83.42H83.5018C83.3551 83.42 83.2818 83.35 83.2818 83.21C83.2818 83.0633 83.3318 82.91 83.4318 82.75C83.5385 82.5833 83.6885 82.42 83.8818 82.26C84.0818 82.1 84.3585 81.9667 84.7118 81.86C85.0718 81.7533 85.4718 81.7 85.9118 81.7C86.8051 81.7 87.4751 81.8867 87.9218 82.26C88.3685 82.6333 88.5918 83.1667 88.5918 83.86V86.73C88.5918 86.8033 88.5651 86.8667 88.5118 86.92C88.4585 86.9733 88.3951 87 88.3218 87H86.5718C86.4985 87 86.4351 86.9733 86.3818 86.92C86.3285 86.8667 86.3018 86.8033 86.3018 86.73V86.45C85.9885 86.8833 85.5318 87.1 84.9318 87.1C84.3318 87.1 83.8485 86.95 83.4818 86.65C83.1218 86.3433 82.9418 85.9633 82.9418 85.51ZM85.5718 85.62C86.0051 85.62 86.2218 85.36 86.2218 84.84L85.6318 84.97C85.3385 85.0367 85.1918 85.16 85.1918 85.34C85.1918 85.42 85.2251 85.4867 85.2918 85.54C85.3585 85.5933 85.4518 85.62 85.5718 85.62ZM95.3671 83.49C95.2604 83.49 95.1671 83.53 95.0871 83.61C95.0138 83.69 94.9771 83.81 94.9771 83.97V86.73C94.9771 86.8033 94.9504 86.8667 94.8971 86.92C94.8438 86.9733 94.7804 87 94.7071 87H92.9471C92.8738 87 92.8104 86.9733 92.7571 86.92C92.7038 86.8667 92.6771 86.8033 92.6771 86.73V84.04C92.6771 83.6733 92.5438 83.49 92.2771 83.49C92.1638 83.49 92.0671 83.5333 91.9871 83.62C91.9138 83.7 91.8771 83.8133 91.8771 83.96V86.73C91.8771 86.8033 91.8504 86.8667 91.7971 86.92C91.7438 86.9733 91.6804 87 91.6071 87H89.8071C89.7338 87 89.6704 86.9733 89.6171 86.92C89.5638 86.8667 89.5371 86.8033 89.5371 86.73V82.07C89.5371 81.9967 89.5638 81.9333 89.6171 81.88C89.6704 81.8267 89.7338 81.8 89.8071 81.8H91.4571C91.5304 81.8 91.5938 81.8267 91.6471 81.88C91.7004 81.9333 91.7271 81.9967 91.7271 82.07V82.4C91.8604 82.2267 92.0504 82.07 92.2971 81.93C92.5704 81.7767 92.8771 81.7 93.2171 81.7C93.9504 81.7 94.4438 81.9733 94.6971 82.52C94.8571 82.2867 95.0771 82.0933 95.3571 81.94C95.6371 81.78 95.9271 81.7 96.2271 81.7C96.7671 81.7 97.2071 81.89 97.5471 82.27C97.8938 82.65 98.0671 83.2167 98.0671 83.97V86.73C98.0671 86.8033 98.0404 86.8667 97.9871 86.92C97.9338 86.9733 97.8704 87 97.7971 87H96.0371C95.9638 87 95.9004 86.9733 95.8471 86.92C95.7938 86.8667 95.7671 86.8033 95.7671 86.73V84.04C95.7671 83.6733 95.6338 83.49 95.3671 83.49Z" fill="white"/>
<path d="M47.36 80.64L46.7332 79.8608L46.7291 79.8641L47.36 80.64ZM52.21 80.65L51.574 81.4217L51.5832 81.4292L52.21 80.65ZM52.22 86.39L52.8394 87.1751L52.8405 87.1742L52.22 86.39ZM47.35 86.39L46.7253 87.1709L46.7349 87.1784L47.35 86.39ZM49.25 84.95L49.9571 84.2429L49.9571 84.2429L49.25 84.95ZM50.33 84.95L51.0371 85.6571H51.0371L50.33 84.95ZM50.33 82.06L49.6059 82.7497L49.6143 82.7585L49.6229 82.7671L50.33 82.06ZM49.25 82.06L49.9571 82.7671L49.9657 82.7585L49.9741 82.7497L49.25 82.06ZM47.36 80.64L47.9868 81.4192C48.3779 81.1046 48.9467 80.9 49.79 80.9V79.9V78.9C48.62 78.9 47.5688 79.1887 46.7332 79.8608L47.36 80.64ZM49.79 79.9V80.9C50.6309 80.9 51.1917 81.1066 51.574 81.4217L52.21 80.65L52.846 79.8783C52.015 79.1934 50.9624 78.9 49.79 78.9V79.9ZM52.21 80.65L51.5832 81.4292C51.9249 81.704 52.13 82.0939 52.13 82.74H53.13H54.13C54.13 81.5861 53.7217 80.5826 52.8368 79.8708L52.21 80.65ZM53.13 82.74H52.13V84.3H53.13H54.13V82.74H53.13ZM53.13 84.3H52.13C52.13 84.9695 51.9219 85.3507 51.5995 85.6058L52.22 86.39L52.8405 87.1742C53.7315 86.4693 54.13 85.4572 54.13 84.3H53.13ZM52.22 86.39L51.6006 85.6049C51.2282 85.8987 50.6604 86.1 49.79 86.1V87.1V88.1C50.9596 88.1 52.0118 87.8279 52.8394 87.1751L52.22 86.39ZM49.79 87.1V86.1C48.9203 86.1 48.3463 85.899 47.9651 85.6016L47.35 86.39L46.7349 87.1784C47.567 87.8277 48.6197 88.1 49.79 88.1V87.1ZM47.35 86.39L47.9747 85.6091C47.6577 85.3555 47.45 84.9734 47.45 84.3H46.45H45.45C45.45 85.4532 45.8423 86.4645 46.7253 87.1709L47.35 86.39ZM46.45 84.3H47.45V82.74H46.45H45.45V84.3H46.45ZM46.45 82.74H47.45C47.45 82.0805 47.6565 81.6878 47.9909 81.4159L47.36 80.64L46.7291 79.8641C45.8502 80.5789 45.45 81.5861 45.45 82.74H46.45ZM49.25 84.95L48.5429 85.6571C48.9007 86.015 49.3554 86.15 49.79 86.15V85.15V84.15C49.7742 84.15 49.7931 84.1477 49.8323 84.1623C49.875 84.178 49.92 84.2058 49.9571 84.2429L49.25 84.95ZM49.79 85.15V86.15C50.2246 86.15 50.6793 86.015 51.0371 85.6571L50.33 84.95L49.6229 84.2429C49.66 84.2058 49.705 84.178 49.7477 84.1623C49.7869 84.1477 49.8058 84.15 49.79 84.15V85.15ZM50.33 84.95L51.0371 85.6571C51.4282 85.266 51.53 84.7591 51.53 84.34H50.53H49.53C49.53 84.3987 49.5224 84.4083 49.5298 84.3859C49.5387 84.3588 49.5645 84.3013 49.6229 84.2429L50.33 84.95ZM50.53 84.34H51.53V82.66H50.53H49.53V84.34H50.53ZM50.53 82.66H51.53C51.53 82.2392 51.4241 81.7399 51.0371 81.3529L50.33 82.06L49.6229 82.7671C49.5674 82.7116 49.5412 82.6559 49.5313 82.6262C49.523 82.6014 49.53 82.607 49.53 82.66H50.53ZM50.33 82.06L51.0541 81.3703C50.6994 80.9979 50.2391 80.85 49.79 80.85V81.85V82.85C49.8005 82.85 49.7763 82.8515 49.7326 82.8345C49.6855 82.8162 49.6404 82.7859 49.6059 82.7497L50.33 82.06ZM49.79 81.85V80.85C49.3409 80.85 48.8806 80.9979 48.5259 81.3703L49.25 82.06L49.9741 82.7497C49.9396 82.7859 49.8945 82.8162 49.8474 82.8345C49.8037 82.8515 49.7795 82.85 49.79 82.85V81.85ZM49.25 82.06L48.5429 81.3529C48.1559 81.7399 48.05 82.2392 48.05 82.66H49.05H50.05C50.05 82.607 50.057 82.6014 50.0487 82.6262C50.0388 82.6559 50.0126 82.7116 49.9571 82.7671L49.25 82.06ZM49.05 82.66H48.05V84.34H49.05H50.05V82.66H49.05ZM49.05 84.34H48.05C48.05 84.7591 48.1518 85.266 48.5429 85.6571L49.25 84.95L49.9571 84.2429C50.0155 84.3013 50.0413 84.3588 50.0502 84.3859C50.0576 84.4083 50.05 84.3987 50.05 84.34H49.05ZM57.0781 83.55V82.55H56.0781V83.55H57.0781ZM58.6081 85.23L57.901 85.9371L57.901 85.9371L58.6081 85.23ZM58.6081 86.92L57.901 86.2129L57.901 86.2129L58.6081 86.92ZM54.7881 83.55H55.7881V82.55H54.7881V83.55ZM53.8081 83.47L53.101 84.1771L53.101 84.1771L53.8081 83.47ZM53.8081 81.88L54.5152 82.5871V82.5871L53.8081 81.88ZM54.7881 81.8V82.8H55.7881V81.8H54.7881ZM56.9981 79.98L56.291 80.6871L56.291 80.6871L56.9981 79.98ZM57.0781 81.8H56.0781V82.8H57.0781V81.8ZM58.5281 81.88L59.2352 81.1729L59.2352 81.1729L58.5281 81.88ZM58.5281 83.47L59.2352 84.1771L59.2352 84.1771L58.5281 83.47ZM57.0781 83.55H56.0781V84.65H57.0781H58.0781V83.55H57.0781ZM57.0781 84.65H56.0781C56.0781 84.937 56.1366 85.3389 56.4274 85.677C56.7431 86.0441 57.168 86.15 57.5081 86.15V85.15V84.15C57.5616 84.15 57.7715 84.1726 57.9438 84.373C58.0913 84.5445 58.0781 84.6964 58.0781 84.65H57.0781ZM57.5081 85.15V86.15H58.4181V85.15V84.15H57.5081V85.15ZM58.4181 85.15V86.15C58.3306 86.15 58.2318 86.1334 58.1326 86.0916C58.0339 86.0501 57.9569 85.993 57.901 85.9371L58.6081 85.23L59.3152 84.5229C59.0803 84.288 58.765 84.15 58.4181 84.15V85.15ZM58.6081 85.23L57.901 85.9371C57.8452 85.8813 57.788 85.8043 57.7465 85.7056C57.7047 85.6063 57.6881 85.5075 57.6881 85.42H58.6881H59.6881C59.6881 85.0731 59.5501 84.7578 59.3152 84.5229L58.6081 85.23ZM58.6881 85.42H57.6881V86.73H58.6881H59.6881V85.42H58.6881ZM58.6881 86.73H57.6881C57.6881 86.6425 57.7047 86.5437 57.7465 86.4444C57.788 86.3457 57.8452 86.2687 57.901 86.2129L58.6081 86.92L59.3152 87.6271C59.5501 87.3922 59.6881 87.0769 59.6881 86.73H58.6881ZM58.6081 86.92L57.901 86.2129C57.9569 86.157 58.0339 86.0999 58.1326 86.0584C58.2318 86.0166 58.3306 86 58.4181 86V87V88C58.765 88 59.0803 87.862 59.3152 87.6271L58.6081 86.92ZM58.4181 87V86H57.2881V87V88H58.4181V87ZM57.2881 87V86C56.5751 86 56.227 85.8435 56.0652 85.7043C55.9322 85.59 55.7881 85.3699 55.7881 84.85H54.7881H53.7881C53.7881 85.7635 54.0607 86.6184 54.7611 87.2207C55.4326 87.7982 56.3345 88 57.2881 88V87ZM54.7881 84.85H55.7881V83.55H54.7881H53.7881V84.85H54.7881ZM54.7881 83.55V82.55H53.9981V83.55V84.55H54.7881V83.55ZM53.9981 83.55V82.55C54.0857 82.55 54.1844 82.5666 54.2837 82.6084C54.3824 82.6499 54.4594 82.707 54.5152 82.7629L53.8081 83.47L53.101 84.1771C53.3359 84.412 53.6512 84.55 53.9981 84.55V83.55ZM53.8081 83.47L54.5152 82.7629C54.5711 82.8187 54.6282 82.8957 54.6698 82.9944C54.7116 83.0937 54.7281 83.1925 54.7281 83.28H53.7281H52.7281C52.7281 83.6269 52.8661 83.9422 53.101 84.1771L53.8081 83.47ZM53.7281 83.28H54.7281V82.07H53.7281H52.7281V83.28H53.7281ZM53.7281 82.07H54.7281C54.7281 82.1575 54.7116 82.2563 54.6698 82.3556C54.6282 82.4543 54.5711 82.5313 54.5152 82.5871L53.8081 81.88L53.101 81.1729C52.8661 81.4078 52.7281 81.7231 52.7281 82.07H53.7281ZM53.8081 81.88L54.5152 82.5871C54.4594 82.643 54.3824 82.7001 54.2837 82.7416C54.1844 82.7834 54.0857 82.8 53.9981 82.8V81.8V80.8C53.6512 80.8 53.3359 80.938 53.101 81.1729L53.8081 81.88ZM53.9981 81.8V82.8H54.7881V81.8V80.8H53.9981V81.8ZM54.7881 81.8H55.7881V80.17H54.7881H53.7881V81.8H54.7881ZM54.7881 80.17H55.7881C55.7881 80.2575 55.7716 80.3563 55.7298 80.4556C55.6882 80.5543 55.6311 80.6313 55.5752 80.6871L54.8681 79.98L54.161 79.2729C53.9261 79.5078 53.7881 79.8231 53.7881 80.17H54.7881ZM54.8681 79.98L55.5752 80.6871C55.5194 80.743 55.4424 80.8001 55.3437 80.8416C55.2444 80.8834 55.1457 80.9 55.0581 80.9V79.9V78.9C54.7112 78.9 54.3959 79.038 54.161 79.2729L54.8681 79.98ZM55.0581 79.9V80.9H56.8081V79.9V78.9H55.0581V79.9ZM56.8081 79.9V80.9C56.7206 80.9 56.6218 80.8834 56.5226 80.8416C56.4239 80.8001 56.3469 80.743 56.291 80.6871L56.9981 79.98L57.7052 79.2729C57.4703 79.038 57.155 78.9 56.8081 78.9V79.9ZM56.9981 79.98L56.291 80.6871C56.2352 80.6313 56.1781 80.5543 56.1365 80.4556C56.0947 80.3563 56.0781 80.2575 56.0781 80.17H57.0781H58.0781C58.0781 79.8231 57.9401 79.5078 57.7052 79.2729L56.9981 79.98ZM57.0781 80.17H56.0781V81.8H57.0781H58.0781V80.17H57.0781ZM57.0781 81.8V82.8H58.3381V81.8V80.8H57.0781V81.8ZM58.3381 81.8V82.8C58.2506 82.8 58.1518 82.7834 58.0526 82.7416C57.9539 82.7001 57.8769 82.643 57.821 82.5871L58.5281 81.88L59.2352 81.1729C59.0003 80.938 58.685 80.8 58.3381 80.8V81.8ZM58.5281 81.88L57.821 82.5871C57.7652 82.5313 57.708 82.4543 57.6665 82.3556C57.6247 82.2563 57.6081 82.1575 57.6081 82.07H58.6081H59.6081C59.6081 81.7231 59.4701 81.4078 59.2352 81.1729L58.5281 81.88ZM58.6081 82.07H57.6081V83.28H58.6081H59.6081V82.07H58.6081ZM58.6081 83.28H57.6081C57.6081 83.1925 57.6247 83.0937 57.6665 82.9944C57.708 82.8957 57.7652 82.8187 57.821 82.7629L58.5281 83.47L59.2352 84.1771C59.4701 83.9422 59.6081 83.6269 59.6081 83.28H58.6081ZM58.5281 83.47L57.821 82.7629C57.8769 82.707 57.9539 82.6499 58.0526 82.6084C58.1518 82.5666 58.2506 82.55 58.3381 82.55V83.55V84.55C58.685 84.55 59.0003 84.412 59.2352 84.1771L58.5281 83.47ZM58.3381 83.55V82.55H57.0781V83.55V84.55H58.3381V83.55ZM62.3906 83.55V82.55H61.3906V83.55H62.3906ZM63.9206 85.23L63.2135 85.9371L63.2135 85.9371L63.9206 85.23ZM63.9206 86.92L63.2135 86.2129L63.2135 86.2129L63.9206 86.92ZM60.1006 83.55H61.1006V82.55H60.1006V83.55ZM59.1206 83.47L58.4135 84.1771L58.4135 84.1771L59.1206 83.47ZM59.1206 81.88L59.8277 82.5871V82.5871L59.1206 81.88ZM60.1006 81.8V82.8H61.1006V81.8H60.1006ZM62.3106 79.98L61.6035 80.6871L61.6035 80.6871L62.3106 79.98ZM62.3906 81.8H61.3906V82.8H62.3906V81.8ZM63.8406 81.88L64.5477 81.1729V81.1729L63.8406 81.88ZM63.8406 83.47L64.5477 84.1771L64.5477 84.1771L63.8406 83.47ZM62.3906 83.55H61.3906V84.65H62.3906H63.3906V83.55H62.3906ZM62.3906 84.65H61.3906C61.3906 84.937 61.4491 85.3389 61.7399 85.677C62.0556 86.0441 62.4805 86.15 62.8206 86.15V85.15V84.15C62.8741 84.15 63.084 84.1726 63.2563 84.373C63.4038 84.5445 63.3906 84.6964 63.3906 84.65H62.3906ZM62.8206 85.15V86.15H63.7306V85.15V84.15H62.8206V85.15ZM63.7306 85.15V86.15C63.6431 86.15 63.5443 86.1334 63.4451 86.0916C63.3464 86.0501 63.2694 85.993 63.2135 85.9371L63.9206 85.23L64.6277 84.5229C64.3928 84.288 64.0775 84.15 63.7306 84.15V85.15ZM63.9206 85.23L63.2135 85.9371C63.1577 85.8813 63.1005 85.8043 63.059 85.7056C63.0172 85.6063 63.0006 85.5075 63.0006 85.42H64.0006H65.0006C65.0006 85.0731 64.8626 84.7578 64.6277 84.5229L63.9206 85.23ZM64.0006 85.42H63.0006V86.73H64.0006H65.0006V85.42H64.0006ZM64.0006 86.73H63.0006C63.0006 86.6425 63.0172 86.5437 63.059 86.4444C63.1005 86.3457 63.1577 86.2687 63.2135 86.2129L63.9206 86.92L64.6277 87.6271C64.8626 87.3922 65.0006 87.0769 65.0006 86.73H64.0006ZM63.9206 86.92L63.2135 86.2129C63.2694 86.157 63.3464 86.0999 63.4451 86.0584C63.5443 86.0166 63.6431 86 63.7306 86V87V88C64.0775 88 64.3928 87.862 64.6277 87.6271L63.9206 86.92ZM63.7306 87V86H62.6006V87V88H63.7306V87ZM62.6006 87V86C61.8876 86 61.5395 85.8435 61.3777 85.7043C61.2447 85.59 61.1006 85.3699 61.1006 84.85H60.1006H59.1006C59.1006 85.7635 59.3732 86.6184 60.0736 87.2207C60.7451 87.7982 61.647 88 62.6006 88V87ZM60.1006 84.85H61.1006V83.55H60.1006H59.1006V84.85H60.1006ZM60.1006 83.55V82.55H59.3106V83.55V84.55H60.1006V83.55ZM59.3106 83.55V82.55C59.3982 82.55 59.4969 82.5666 59.5962 82.6084C59.6949 82.6499 59.7719 82.707 59.8277 82.7629L59.1206 83.47L58.4135 84.1771C58.6484 84.412 58.9637 84.55 59.3106 84.55V83.55ZM59.1206 83.47L59.8277 82.7629C59.8836 82.8187 59.9407 82.8957 59.9823 82.9944C60.0241 83.0937 60.0406 83.1925 60.0406 83.28H59.0406H58.0406C58.0406 83.6269 58.1786 83.9422 58.4135 84.1771L59.1206 83.47ZM59.0406 83.28H60.0406V82.07H59.0406H58.0406V83.28H59.0406ZM59.0406 82.07H60.0406C60.0406 82.1575 60.0241 82.2563 59.9823 82.3556C59.9407 82.4543 59.8836 82.5313 59.8277 82.5871L59.1206 81.88L58.4135 81.1729C58.1786 81.4078 58.0406 81.7231 58.0406 82.07H59.0406ZM59.1206 81.88L59.8277 82.5871C59.7719 82.643 59.6949 82.7001 59.5962 82.7416C59.4969 82.7834 59.3982 82.8 59.3106 82.8V81.8V80.8C58.9637 80.8 58.6484 80.938 58.4135 81.1729L59.1206 81.88ZM59.3106 81.8V82.8H60.1006V81.8V80.8H59.3106V81.8ZM60.1006 81.8H61.1006V80.17H60.1006H59.1006V81.8H60.1006ZM60.1006 80.17H61.1006C61.1006 80.2575 61.0841 80.3563 61.0423 80.4556C61.0007 80.5543 60.9436 80.6313 60.8877 80.6871L60.1806 79.98L59.4735 79.2729C59.2386 79.5078 59.1006 79.8231 59.1006 80.17H60.1006ZM60.1806 79.98L60.8877 80.6871C60.8319 80.743 60.7549 80.8001 60.6562 80.8416C60.5569 80.8834 60.4582 80.9 60.3706 80.9V79.9V78.9C60.0237 78.9 59.7084 79.038 59.4735 79.2729L60.1806 79.98ZM60.3706 79.9V80.9H62.1206V79.9V78.9H60.3706V79.9ZM62.1206 79.9V80.9C62.0331 80.9 61.9343 80.8834 61.8351 80.8416C61.7364 80.8001 61.6594 80.743 61.6035 80.6871L62.3106 79.98L63.0177 79.2729C62.7828 79.038 62.4675 78.9 62.1206 78.9V79.9ZM62.3106 79.98L61.6035 80.6871C61.5477 80.6313 61.4906 80.5543 61.449 80.4556C61.4072 80.3563 61.3906 80.2575 61.3906 80.17H62.3906H63.3906C63.3906 79.8231 63.2526 79.5078 63.0177 79.2729L62.3106 79.98ZM62.3906 80.17H61.3906V81.8H62.3906H63.3906V80.17H62.3906ZM62.3906 81.8V82.8H63.6506V81.8V80.8H62.3906V81.8ZM63.6506 81.8V82.8C63.5631 82.8 63.4643 82.7834 63.3651 82.7416C63.2664 82.7001 63.1894 82.643 63.1335 82.5871L63.8406 81.88L64.5477 81.1729C64.3128 80.938 63.9975 80.8 63.6506 80.8V81.8ZM63.8406 81.88L63.1335 82.5871C63.0777 82.5313 63.0205 82.4543 62.979 82.3556C62.9372 82.2563 62.9206 82.1575 62.9206 82.07H63.9206H64.9206C64.9206 81.7231 64.7826 81.4078 64.5477 81.1729L63.8406 81.88ZM63.9206 82.07H62.9206V83.28H63.9206H64.9206V82.07H63.9206ZM63.9206 83.28H62.9206C62.9206 83.1925 62.9372 83.0937 62.979 82.9944C63.0205 82.8957 63.0777 82.8187 63.1335 82.7629L63.8406 83.47L64.5477 84.1771C64.7826 83.9422 64.9206 83.6269 64.9206 83.28H63.9206ZM63.8406 83.47L63.1335 82.7629C63.1894 82.707 63.2664 82.6499 63.3651 82.6084C63.4643 82.5666 63.5631 82.55 63.6506 82.55V83.55V84.55C63.9975 84.55 64.3128 84.412 64.5477 84.1771L63.8406 83.47ZM63.6506 83.55V82.55H62.3906V83.55V84.55H63.6506V83.55ZM67.0031 84.99V83.99H66.0031V84.99H67.0031ZM69.3831 86.57L68.8008 85.757L68.7956 85.7608L69.3831 86.57ZM65.3431 86.45L64.7019 87.2175L64.7125 87.2261L65.3431 86.45ZM65.3631 82.39L66.0061 83.1559L66.0116 83.1512L65.3631 82.39ZM69.5231 82.47L68.7927 83.153L68.7974 83.158L69.5231 82.47ZM70.1731 84.91L69.466 84.2029L69.466 84.2029L70.1731 84.91ZM67.0031 83.74H66.0031V84.74H67.0031V83.74ZM67.8031 83.74V84.74H68.8031V83.74H67.8031ZM69.9831 84.99V83.99H67.0031V84.99V85.99H69.9831V84.99ZM67.0031 84.99H66.0031V85.04H67.0031H68.0031V84.99H67.0031ZM67.0031 85.04H66.0031C66.0031 85.3177 66.0417 85.6977 66.2581 86.0362C66.5232 86.4509 66.9535 86.65 67.3931 86.65V85.65V84.65C67.4598 84.65 67.5669 84.6637 67.6848 84.7252C67.8058 84.7883 67.8909 84.8772 67.9431 84.9588C67.9911 85.0338 68.0037 85.09 68.0055 85.0984C68.0075 85.1077 68.0031 85.0915 68.0031 85.04H67.0031ZM67.3931 85.65V86.65C67.6699 86.65 67.8884 86.5515 68.0254 86.4703C68.1663 86.3868 68.2814 86.2859 68.3702 86.1971L67.6631 85.49L66.956 84.7829C66.9382 84.8007 66.955 84.7798 67.0058 84.7497C67.0529 84.7218 67.1897 84.65 67.3931 84.65V85.65ZM67.6631 85.49L68.3702 86.1971C68.3538 86.2135 68.3137 86.2487 68.2464 86.2795C68.1759 86.3117 68.0951 86.33 68.0131 86.33V85.33V84.33C67.5715 84.33 67.2118 84.5271 66.956 84.7829L67.6631 85.49ZM68.0131 85.33V86.33H69.9031V85.33V84.33H68.0131V85.33ZM69.9031 85.33V86.33C69.8223 86.33 69.578 86.3091 69.361 86.0921C69.144 85.8751 69.1231 85.6308 69.1231 85.55H70.1231H71.1231C71.1231 85.3225 71.0656 84.9682 70.7752 84.6779C70.4849 84.3875 70.1306 84.33 69.9031 84.33V85.33ZM70.1231 85.55H69.1231C69.1231 85.4491 69.1636 85.4146 69.1287 85.4628C69.0897 85.5165 68.9955 85.6176 68.8008 85.757L69.3831 86.57L69.9654 87.383C70.5075 86.9947 71.1231 86.3935 71.1231 85.55H70.1231ZM69.3831 86.57L68.7956 85.7608C68.5356 85.9496 68.1035 86.1 67.3931 86.1V87.1V88.1C68.3627 88.1 69.2573 87.8971 69.9706 87.3792L69.3831 86.57ZM67.3931 87.1V86.1C66.7389 86.1 66.2931 85.9334 65.9737 85.6739L65.3431 86.45L64.7125 87.2261C65.4598 87.8332 66.3807 88.1 67.3931 88.1V87.1ZM65.3431 86.45L65.9843 85.6826C65.7134 85.4563 65.5531 85.1494 65.5531 84.64H64.5531H63.5531C63.5531 85.6639 63.9195 86.5637 64.702 87.2174L65.3431 86.45ZM64.5531 84.64H65.5531V84.16H64.5531H63.5531V84.64H64.5531ZM64.5531 84.16H65.5531C65.5531 83.7184 65.7003 83.4126 66.0061 83.1559L65.3631 82.39L64.7202 81.6241C63.946 82.274 63.5531 83.1483 63.5531 84.16H64.5531ZM65.3631 82.39L66.0116 83.1512C66.3316 82.8787 66.7905 82.7 67.4831 82.7V81.7V80.7C66.4291 80.7 65.4747 80.9813 64.7147 81.6288L65.3631 82.39ZM67.4831 81.7V82.7C68.1608 82.7 68.5473 82.8905 68.7927 83.153L69.5231 82.47L70.2535 81.787C69.539 81.0228 68.5655 80.7 67.4831 80.7V81.7ZM69.5231 82.47L68.7974 83.158C69.0876 83.4641 69.2531 83.8581 69.2531 84.42H70.2531H71.2531C71.2531 83.4085 70.932 82.5026 70.2488 81.782L69.5231 82.47ZM70.2531 84.42H69.2531V84.72H70.2531H71.2531V84.42H70.2531ZM70.2531 84.72H69.2531C69.2531 84.6325 69.2697 84.5337 69.3115 84.4344C69.3531 84.3357 69.4102 84.2587 69.466 84.2029L70.1731 84.91L70.8802 85.6171C71.1151 85.3822 71.2531 85.0669 71.2531 84.72H70.2531ZM70.1731 84.91L69.466 84.2029C69.5219 84.147 69.5989 84.0899 69.6976 84.0484C69.7968 84.0066 69.8956 83.99 69.9831 83.99V84.99V85.99C70.33 85.99 70.6453 85.852 70.8802 85.6171L70.1731 84.91ZM67.8031 83.7H68.8031C68.8031 83.4205 68.7623 83.0359 68.5352 82.6953C68.2604 82.2831 67.8278 82.1 67.4031 82.1V83.1V84.1C67.3442 84.1 67.2441 84.0885 67.1309 84.0319C67.0136 83.9733 66.9268 83.8883 66.8711 83.8047C66.7773 83.6641 66.8031 83.5795 66.8031 83.7H67.8031ZM67.4031 83.1V82.1C66.9785 82.1 66.5459 82.2831 66.2711 82.6953C66.044 83.0359 66.0031 83.4205 66.0031 83.7H67.0031H68.0031C68.0031 83.5795 68.0289 83.6641 67.9352 83.8047C67.8794 83.8883 67.7926 83.9733 67.6753 84.0319C67.5622 84.0885 67.4621 84.1 67.4031 84.1V83.1ZM67.0031 83.7H66.0031V83.74H67.0031H68.0031V83.7H67.0031ZM67.0031 83.74V84.74H67.8031V83.74V82.74H67.0031V83.74ZM67.8031 83.74H68.8031V83.7H67.8031H66.8031V83.74H67.8031ZM73.2896 82.42H72.2896V84.6416L73.9526 83.1686L73.2896 82.42ZM75.5196 83.82L74.8125 83.1129L74.8125 83.1129L75.5196 83.82ZM73.6096 84.03L74.2343 84.8109L74.2402 84.8061L73.6096 84.03ZM73.4396 84.36L72.4441 84.2652L72.4396 84.3125V84.36H73.4396ZM73.3596 86.92L74.0667 87.6271L74.0667 87.6271L73.3596 86.92ZM71.0796 86.92L70.3725 87.6271V87.6271L71.0796 86.92ZM71.0796 81.88L70.3725 81.1729V81.1729L71.0796 81.88ZM73.2096 81.88L72.5025 82.5871L72.5025 82.5871L73.2096 81.88ZM73.2896 82.07H72.2896V82.42H73.2896H74.2896V82.07H73.2896ZM73.2896 82.42L73.9526 83.1686C74.2537 82.9019 74.5427 82.8 74.8496 82.8V81.8V80.8C74.0098 80.8 73.2588 81.1114 72.6266 81.6714L73.2896 82.42ZM74.8496 81.8V82.8H75.3296V81.8V80.8H74.8496V81.8ZM75.3296 81.8V82.8C75.2421 82.8 75.1433 82.7834 75.0441 82.7416C74.9453 82.7001 74.8683 82.643 74.8125 82.5871L75.5196 81.88L76.2267 81.1729C75.9918 80.938 75.6765 80.8 75.3296 80.8V81.8ZM75.5196 81.88L74.8125 82.5871C74.7567 82.5313 74.6995 82.4543 74.658 82.3556C74.6162 82.2563 74.5996 82.1575 74.5996 82.07H75.5996H76.5996C76.5996 81.7231 76.4616 81.4078 76.2267 81.1729L75.5196 81.88ZM75.5996 82.07H74.5996V83.63H75.5996H76.5996V82.07H75.5996ZM75.5996 83.63H74.5996C74.5996 83.5425 74.6162 83.4437 74.658 83.3444C74.6995 83.2457 74.7567 83.1687 74.8125 83.1129L75.5196 83.82L76.2267 84.5271C76.4616 84.2922 76.5996 83.9769 76.5996 83.63H75.5996ZM75.5196 83.82L74.8125 83.1129C74.8683 83.057 74.9453 82.9999 75.0441 82.9584C75.1433 82.9166 75.2421 82.9 75.3296 82.9V83.9V84.9C75.6765 84.9 75.9918 84.762 76.2267 84.5271L75.5196 83.82ZM75.3296 83.9V82.9H74.0396V83.9V84.9H75.3296V83.9ZM74.0396 83.9V82.9C73.7017 82.9 73.3127 82.9828 72.979 83.2539L73.6096 84.03L74.2402 84.8061C74.1199 84.9039 74.0175 84.9 74.0396 84.9V83.9ZM73.6096 84.03L72.9849 83.2491C72.6517 83.5157 72.4803 83.885 72.4441 84.2652L73.4396 84.36L74.4351 84.4548C74.4313 84.4944 74.4185 84.5579 74.3811 84.6305C74.3427 84.7049 74.2902 84.7662 74.2343 84.8109L73.6096 84.03ZM73.4396 84.36H72.4396V86.73H73.4396H74.4396V84.36H73.4396ZM73.4396 86.73H72.4396C72.4396 86.6425 72.4562 86.5437 72.498 86.4444C72.5395 86.3457 72.5967 86.2687 72.6525 86.2129L73.3596 86.92L74.0667 87.6271C74.3016 87.3922 74.4396 87.0769 74.4396 86.73H73.4396ZM73.3596 86.92L72.6525 86.2129C72.7084 86.157 72.7853 86.0999 72.8841 86.0584C72.9833 86.0166 73.0821 86 73.1696 86V87V88C73.5165 88 73.8318 87.862 74.0667 87.6271L73.3596 86.92ZM73.1696 87V86H71.2696V87V88H73.1696V87ZM71.2696 87V86C71.3572 86 71.4559 86.0166 71.5552 86.0584C71.6539 86.0999 71.7309 86.157 71.7867 86.2129L71.0796 86.92L70.3725 87.6271C70.6074 87.862 70.9227 88 71.2696 88V87ZM71.0796 86.92L71.7867 86.2129C71.8426 86.2687 71.8997 86.3457 71.9412 86.4444C71.983 86.5437 71.9996 86.6425 71.9996 86.73H70.9996H69.9996C69.9996 87.0769 70.1376 87.3922 70.3725 87.6271L71.0796 86.92ZM70.9996 86.73H71.9996V82.07H70.9996H69.9996V86.73H70.9996ZM70.9996 82.07H71.9996C71.9996 82.1575 71.983 82.2563 71.9412 82.3556C71.8997 82.4543 71.8426 82.5313 71.7867 82.5871L71.0796 81.88L70.3725 81.1729C70.1376 81.4078 69.9996 81.7231 69.9996 82.07H70.9996ZM71.0796 81.88L71.7867 82.5871C71.7309 82.643 71.6539 82.7001 71.5552 82.7416C71.4559 82.7834 71.3572 82.8 71.2696 82.8V81.8V80.8C70.9227 80.8 70.6074 80.938 70.3725 81.1729L71.0796 81.88ZM71.2696 81.8V82.8H73.0196V81.8V80.8H71.2696V81.8ZM73.0196 81.8V82.8C72.9321 82.8 72.8333 82.7834 72.7341 82.7416C72.6353 82.7001 72.5583 82.643 72.5025 82.5871L73.2096 81.88L73.9167 81.1729C73.6818 80.938 73.3665 80.8 73.0196 80.8V81.8ZM73.2096 81.88L72.5025 82.5871C72.4467 82.5313 72.3895 82.4543 72.348 82.3556C72.3062 82.2563 72.2896 82.1575 72.2896 82.07H73.2896H74.2896C74.2896 81.7231 74.1516 81.4078 73.9167 81.1729L73.2096 81.88ZM76.8523 82.29L77.5535 83.003V83.003L76.8523 82.29ZM79.7023 82.17L79.0318 82.9119L80.7023 84.4218V82.17H79.7023ZM79.7823 79.98L79.0752 79.2729V79.2729L79.7823 79.98ZM82.0123 79.98L81.3052 80.6871L81.3052 80.6871L82.0123 79.98ZM82.0123 86.92L81.3052 86.2129V86.2129L82.0123 86.92ZM79.9323 86.92L80.6395 86.2129V86.2129L79.9323 86.92ZM79.8523 86.43H80.8523V83.5105L79.0624 85.8169L79.8523 86.43ZM76.8423 86.54L76.1475 87.2592L76.1539 87.2653L76.8423 86.54ZM79.7023 83.99H80.7023V83.96L80.7006 83.9301L79.7023 83.99ZM76.2523 84.79H77.2523V84H76.2523H75.2523V84.79H76.2523ZM76.2523 84H77.2523C77.2523 83.4295 77.4016 83.1524 77.5535 83.003L76.8523 82.29L76.1512 81.577C75.5031 82.2143 75.2523 83.0772 75.2523 84H76.2523ZM76.8523 82.29L77.5535 83.003C77.7619 82.7981 77.9949 82.7 78.3123 82.7V81.7V80.7C77.4832 80.7 76.7428 80.9953 76.1512 81.577L76.8523 82.29ZM78.3123 81.7V82.7C78.7069 82.7 78.9105 82.8022 79.0318 82.9119L79.7023 82.17L80.3729 81.4281C79.8009 80.9111 79.0778 80.7 78.3123 80.7V81.7ZM79.7023 82.17H80.7023V80.17H79.7023H78.7023V82.17H79.7023ZM79.7023 80.17H80.7023C80.7023 80.2575 80.6858 80.3563 80.644 80.4556C80.6024 80.5543 80.5453 80.6313 80.4895 80.6871L79.7823 79.98L79.0752 79.2729C78.8404 79.5078 78.7023 79.8231 78.7023 80.17H79.7023ZM79.7823 79.98L80.4894 80.6871C80.4336 80.743 80.3566 80.8001 80.2579 80.8416C80.1586 80.8834 80.0599 80.9 79.9723 80.9V79.9V78.9C79.6254 78.9 79.3101 79.038 79.0752 79.2729L79.7823 79.98ZM79.9723 79.9V80.9H81.8223V79.9V78.9H79.9723V79.9ZM81.8223 79.9V80.9C81.7348 80.9 81.636 80.8834 81.5368 80.8416C81.4381 80.8001 81.3611 80.743 81.3052 80.6871L82.0123 79.98L82.7195 79.2729C82.4846 79.038 82.1692 78.9 81.8223 78.9V79.9ZM82.0123 79.98L81.3052 80.6871C81.2494 80.6313 81.1923 80.5543 81.1507 80.4556C81.1089 80.3563 81.0923 80.2575 81.0923 80.17H82.0923H83.0923C83.0923 79.8231 82.9543 79.5078 82.7195 79.2729L82.0123 79.98ZM82.0923 80.17H81.0923V86.73H82.0923H83.0923V80.17H82.0923ZM82.0923 86.73H81.0923C81.0923 86.6425 81.1089 86.5437 81.1507 86.4444C81.1923 86.3457 81.2494 86.2687 81.3052 86.2129L82.0123 86.92L82.7195 87.6271C82.9543 87.3922 83.0923 87.0769 83.0923 86.73H82.0923ZM82.0123 86.92L81.3052 86.2129C81.3611 86.157 81.4381 86.0999 81.5368 86.0584C81.636 86.0166 81.7348 86 81.8223 86V87V88C82.1692 88 82.4846 87.862 82.7195 87.6271L82.0123 86.92ZM81.8223 87V86H80.1223V87V88H81.8223V87ZM80.1223 87V86C80.2099 86 80.3086 86.0166 80.4079 86.0584C80.5066 86.0999 80.5836 86.157 80.6395 86.2129L79.9323 86.92L79.2252 87.6271C79.4601 87.862 79.7754 88 80.1223 88V87ZM79.9323 86.92L80.6395 86.2129C80.6953 86.2687 80.7524 86.3457 80.794 86.4444C80.8358 86.5437 80.8523 86.6425 80.8523 86.73H79.8523H78.8523C78.8523 87.0769 78.9904 87.3922 79.2252 87.6271L79.9323 86.92ZM79.8523 86.73H80.8523V86.43H79.8523H78.8523V86.73H79.8523ZM79.8523 86.43L79.0624 85.8169C78.9296 85.9879 78.7491 86.1 78.3823 86.1V87.1V88.1C79.2823 88.1 80.0817 87.7655 80.6423 87.0431L79.8523 86.43ZM78.3823 87.1V86.1C77.9592 86.1 77.7074 85.9823 77.5308 85.8147L76.8423 86.54L76.1539 87.2653C76.764 87.8443 77.5389 88.1 78.3823 88.1V87.1ZM76.8423 86.54L77.5372 85.8208C77.411 85.6989 77.2523 85.4255 77.2523 84.79H76.2523H75.2523C75.2523 85.7278 75.487 86.6211 76.1475 87.2592L76.8423 86.54ZM79.7023 84.73H80.7023V83.99H79.7023H78.7023V84.73H79.7023ZM79.7023 83.99L80.7006 83.9301C80.682 83.6203 80.5859 83.2243 80.2695 82.9079C79.9431 82.5816 79.5339 82.49 79.2023 82.49V83.49V84.49C79.1841 84.49 79.0149 84.4818 78.8552 84.3221C78.7055 84.1724 78.7027 84.0263 78.7041 84.0499L79.7023 83.99ZM79.2023 83.49V82.49C78.8396 82.49 78.3975 82.6021 78.0699 82.9821C77.7669 83.3336 77.7023 83.7559 77.7023 84.07H78.7023H79.7023C79.7023 83.9975 79.7212 84.1297 79.5848 84.2879C79.5137 84.3703 79.427 84.4269 79.3442 84.459C79.2675 84.4886 79.2134 84.49 79.2023 84.49V83.49ZM78.7023 84.07H77.7023V84.73H78.7023H79.7023V84.07H78.7023ZM78.7023 84.73H77.7023C77.7023 85.0441 77.7669 85.4664 78.0699 85.8179C78.3975 86.1979 78.8396 86.31 79.2023 86.31V85.31V84.31C79.2134 84.31 79.2675 84.3114 79.3442 84.341C79.427 84.3731 79.5137 84.4297 79.5848 84.5121C79.7212 84.6703 79.7023 84.8025 79.7023 84.73H78.7023ZM79.2023 85.31V86.31C79.5651 86.31 80.0072 86.1979 80.3348 85.8179C80.6378 85.4664 80.7023 85.0441 80.7023 84.73H79.7023H78.7023C78.7023 84.8025 78.6835 84.6703 78.8199 84.5121C78.891 84.4297 78.9777 84.3731 79.0604 84.341C79.1372 84.3114 79.1913 84.31 79.2023 84.31V85.31ZM85.1318 83.78L84.9734 82.7925L84.9608 82.7947L85.1318 83.78ZM86.1918 83.61L86.3502 84.5974L87.1918 84.4624V83.61H86.1918ZM86.1418 83.21L85.2314 83.6238L85.2391 83.6407L85.2474 83.6572L86.1418 83.21ZM83.4318 82.75L82.5895 82.2109L82.5838 82.22L83.4318 82.75ZM83.8818 82.26L83.2571 81.4791L83.2506 81.4843L83.2442 81.4896L83.8818 82.26ZM84.7118 81.86L84.4277 80.9012L84.4228 80.9027L84.7118 81.86ZM87.9218 82.26L88.5631 81.4927V81.4927L87.9218 82.26ZM88.5118 86.92L87.8047 86.2129L87.8047 86.2129L88.5118 86.92ZM86.3818 86.92L85.6747 87.6271V87.6271L86.3818 86.92ZM86.3018 86.45H87.3018V83.3604L85.4914 85.8641L86.3018 86.45ZM83.4818 86.65L82.8333 87.4112L82.8409 87.4177L82.8486 87.424L83.4818 86.65ZM86.2218 84.84H87.2218V83.5957L86.0066 83.8634L86.2218 84.84ZM85.6318 84.97L85.4166 83.9934L85.4102 83.9949L85.6318 84.97ZM82.9418 85.51H83.9418C83.9418 85.3777 83.9748 85.2933 84.1092 85.1872C84.2882 85.0458 84.6493 84.8787 85.3028 84.7653L85.1318 83.78L84.9608 82.7947C84.1543 82.9347 83.4204 83.1826 82.8694 83.6178C82.2737 84.0884 81.9418 84.7423 81.9418 85.51H82.9418ZM85.1318 83.78L85.2901 84.7674L86.3502 84.5974L86.1918 83.61L86.0334 82.6226L84.9734 82.7926L85.1318 83.78ZM86.1918 83.61H87.1918C87.1918 83.4865 87.1869 83.3584 87.1716 83.236C87.1586 83.132 87.129 82.9483 87.0362 82.7628L86.1418 83.21L85.2474 83.6572C85.2295 83.6215 85.2175 83.591 85.2097 83.5685C85.2017 83.5457 85.1966 83.5274 85.1935 83.515C85.1876 83.4914 85.1864 83.4794 85.187 83.484C85.1875 83.4877 85.1888 83.4999 85.1899 83.5224C85.191 83.5446 85.1918 83.5735 85.1918 83.61H86.1918ZM86.1418 83.21L87.0522 82.7962C86.7738 82.1838 86.1708 82.1 85.9018 82.1V83.1V84.1C85.8798 84.1 85.7752 84.0985 85.6401 84.0366C85.4831 83.9646 85.3239 83.8272 85.2314 83.6238L86.1418 83.21ZM85.9018 83.1V82.1C85.4643 82.1 85.1178 82.299 84.8774 82.5126L85.5418 83.26L86.2062 84.0074C86.2058 84.0077 86.0993 84.1 85.9018 84.1V83.1ZM85.5418 83.26L84.8774 82.5126C84.8508 82.5363 84.9655 82.42 85.2018 82.42V83.42V84.42C85.6514 84.42 85.9928 84.197 86.2062 84.0074L85.5418 83.26ZM85.2018 83.42V82.42H83.5018V83.42V84.42H85.2018V83.42ZM83.5018 83.42V82.42C83.5713 82.42 83.809 82.4358 84.0273 82.6441C84.2542 82.8608 84.2818 83.1137 84.2818 83.21H83.2818H82.2818C82.2818 83.4463 82.346 83.8042 82.6463 84.0909C82.9379 84.3692 83.2856 84.42 83.5018 84.42V83.42ZM83.2818 83.21H84.2818C84.2818 83.2519 84.2744 83.2815 84.27 83.295C84.266 83.3073 84.2658 83.3025 84.2798 83.28L83.4318 82.75L82.5838 82.22C82.4125 82.4941 82.2818 82.8292 82.2818 83.21H83.2818ZM83.4318 82.75L84.2741 83.2891C84.3122 83.2294 84.3855 83.1412 84.5194 83.0304L83.8818 82.26L83.2442 81.4896C82.9914 81.6988 82.7647 81.9373 82.5895 82.2109L83.4318 82.75ZM83.8818 82.26L84.5065 83.0409C84.5732 82.9875 84.7202 82.902 85.0008 82.8173L84.7118 81.86L84.4228 80.9027C83.9968 81.0313 83.5904 81.2125 83.2571 81.4791L83.8818 82.26ZM84.7118 81.86L84.9959 82.8188C85.2494 82.7437 85.5519 82.7 85.9118 82.7V81.7V80.7C85.3917 80.7 84.8942 80.763 84.4277 80.9012L84.7118 81.86ZM85.9118 81.7V82.7C86.6903 82.7 87.088 82.8664 87.2805 83.0273L87.9218 82.26L88.5631 81.4927C87.8623 80.9069 86.9199 80.7 85.9118 80.7V81.7ZM87.9218 82.26L87.2805 83.0273C87.4559 83.1739 87.5918 83.4004 87.5918 83.86H88.5918H89.5918C89.5918 82.9329 89.2811 82.0928 88.5631 81.4927L87.9218 82.26ZM88.5918 83.86H87.5918V86.73H88.5918H89.5918V83.86H88.5918ZM88.5918 86.73H87.5918C87.5918 86.6425 87.6084 86.5437 87.6502 86.4444C87.6917 86.3457 87.7488 86.2687 87.8047 86.2129L88.5118 86.92L89.2189 87.6271C89.4538 87.3922 89.5918 87.0769 89.5918 86.73H88.5918ZM88.5118 86.92L87.8047 86.2129C87.8605 86.157 87.9375 86.0999 88.0362 86.0584C88.1355 86.0166 88.2343 86 88.3218 86V87V88C88.6687 88 88.984 87.862 89.2189 87.6271L88.5118 86.92ZM88.3218 87V86H86.5718V87V88H88.3218V87ZM86.5718 87V86C86.6593 86 86.7581 86.0166 86.8574 86.0584C86.9561 86.0999 87.0331 86.157 87.0889 86.2129L86.3818 86.92L85.6747 87.6271C85.9096 87.862 86.2249 88 86.5718 88V87ZM86.3818 86.92L87.0889 86.2129C87.1448 86.2687 87.2019 86.3457 87.2434 86.4444C87.2852 86.5437 87.3018 86.6425 87.3018 86.73H86.3018H85.3018C85.3018 87.0769 85.4398 87.3922 85.6747 87.6271L86.3818 86.92ZM86.3018 86.73H87.3018V86.45H86.3018H85.3018V86.73H86.3018ZM86.3018 86.45L85.4914 85.8641C85.3912 86.0027 85.2561 86.1 84.9318 86.1V87.1V88.1C85.8075 88.1 86.5858 87.7639 87.1121 87.0359L86.3018 86.45ZM84.9318 87.1V86.1C84.4998 86.1 84.2598 85.9945 84.115 85.876L83.4818 86.65L82.8486 87.424C83.4371 87.9055 84.1638 88.1 84.9318 88.1V87.1ZM83.4818 86.65L84.1303 85.8888C83.9823 85.7627 83.9418 85.6562 83.9418 85.51H82.9418H81.9418C81.9418 86.2705 82.2613 86.924 82.8333 87.4112L83.4818 86.65ZM85.5718 85.62V86.62C85.9954 86.62 86.4783 86.4842 86.8275 86.0652C87.1476 85.6811 87.2218 85.2142 87.2218 84.84H86.2218H85.2218C85.2218 84.9858 85.1877 84.9089 85.2911 84.7848C85.3469 84.7178 85.4174 84.6697 85.4848 84.6428C85.5461 84.6182 85.5822 84.62 85.5718 84.62V85.62ZM86.2218 84.84L86.0066 83.8634L85.4166 83.9934L85.6318 84.97L85.847 85.9466L86.437 85.8166L86.2218 84.84ZM85.6318 84.97L85.4102 83.9949C85.1879 84.0454 84.9036 84.1408 84.6582 84.3471C84.3756 84.5848 84.1918 84.9337 84.1918 85.34H85.1918H86.1918C86.1918 85.4352 86.1713 85.5439 86.1196 85.6509C86.0687 85.7562 86.0018 85.8304 85.9454 85.8779C85.8467 85.9609 85.7823 85.9613 85.8534 85.9451L85.6318 84.97ZM85.1918 85.34H84.1918C84.1918 85.7465 84.3816 86.0924 84.6671 86.3209L85.2918 85.54L85.9165 84.7591C85.9797 84.8097 86.0544 84.8891 86.1112 85.0028C86.169 85.1184 86.1918 85.2364 86.1918 85.34H85.1918ZM85.2918 85.54L84.6671 86.3209C84.9707 86.5638 85.3152 86.62 85.5718 86.62V85.62V84.62C85.5884 84.62 85.7462 84.6229 85.9165 84.7591L85.2918 85.54ZM95.0871 83.61L94.38 82.9029L94.3646 82.9183L94.35 82.9343L95.0871 83.61ZM92.7571 86.92L92.05 87.6271V87.6271L92.7571 86.92ZM91.9871 83.62L91.2523 82.9417L91.25 82.9443L91.9871 83.62ZM91.7971 86.92L92.5042 87.6271V87.6271L91.7971 86.92ZM89.6171 86.92L90.3242 86.2129V86.2129L89.6171 86.92ZM89.6171 81.88L90.3242 82.5871V82.5871L89.6171 81.88ZM91.6471 81.88L90.94 82.5871V82.5871L91.6471 81.88ZM91.7271 82.4H90.7271V85.3401L92.5197 83.0097L91.7271 82.4ZM92.2971 81.93L91.8079 81.0578L91.8035 81.0603L92.2971 81.93ZM94.6971 82.52L93.7898 82.9405L94.5284 84.5343L95.5218 83.0855L94.6971 82.52ZM95.3571 81.94L95.8374 82.8171L95.8454 82.8127L95.8532 82.8082L95.3571 81.94ZM97.5471 82.27L96.8018 82.9368L96.8083 82.944L97.5471 82.27ZM95.8471 86.92L96.5542 86.2129L96.5542 86.2129L95.8471 86.92ZM95.3671 83.49V82.49C94.9779 82.49 94.6349 82.648 94.38 82.9029L95.0871 83.61L95.7942 84.3171C95.7545 84.3568 95.6939 84.4036 95.611 84.4391C95.527 84.4752 95.4422 84.49 95.3671 84.49V83.49ZM95.0871 83.61L94.35 82.9343C94.0426 83.2696 93.9771 83.6764 93.9771 83.97H94.9771H95.9771C95.9771 83.9436 95.985 84.1104 95.8243 84.2857L95.0871 83.61ZM94.9771 83.97H93.9771V86.73H94.9771H95.9771V83.97H94.9771ZM94.9771 86.73H93.9771C93.9771 86.6425 93.9937 86.5437 94.0355 86.4444C94.077 86.3457 94.1342 86.2687 94.19 86.2129L94.8971 86.92L95.6042 87.6271C95.8391 87.3922 95.9771 87.0769 95.9771 86.73H94.9771ZM94.8971 86.92L94.19 86.2129C94.2458 86.157 94.3228 86.0999 94.4216 86.0584C94.5208 86.0166 94.6196 86 94.7071 86V87V88C95.054 88 95.3693 87.862 95.6042 87.6271L94.8971 86.92ZM94.7071 87V86H92.9471V87V88H94.7071V87ZM92.9471 87V86C93.0347 86 93.1334 86.0166 93.2327 86.0584C93.3314 86.0999 93.4084 86.157 93.4642 86.2129L92.7571 86.92L92.05 87.6271C92.2849 87.862 92.6002 88 92.9471 88V87ZM92.7571 86.92L93.4642 86.2129C93.5201 86.2687 93.5772 86.3457 93.6187 86.4444C93.6605 86.5437 93.6771 86.6425 93.6771 86.73H92.6771H91.6771C91.6771 87.0769 91.8151 87.3922 92.05 87.6271L92.7571 86.92ZM92.6771 86.73H93.6771V84.04H92.6771H91.6771V86.73H92.6771ZM92.6771 84.04H93.6771C93.6771 83.7652 93.6325 83.3784 93.3858 83.0393C93.0962 82.6411 92.6662 82.49 92.2771 82.49V83.49V84.49C92.2299 84.49 92.1409 84.4818 92.0355 84.4334C91.9245 84.3826 91.8328 84.3043 91.7684 84.2157C91.6551 84.0599 91.6771 83.9481 91.6771 84.04H92.6771ZM92.2771 83.49V82.49C91.8721 82.49 91.5129 82.6594 91.2523 82.9417L91.9871 83.62L92.7219 84.2983C92.6807 84.3429 92.6169 84.3955 92.5287 84.435C92.4395 84.475 92.3514 84.49 92.2771 84.49V83.49ZM91.9871 83.62L91.25 82.9443C90.9556 83.2653 90.8771 83.6524 90.8771 83.96H91.8771H92.8771C92.8771 83.9743 92.8719 84.1347 92.7243 84.2957L91.9871 83.62ZM91.8771 83.96H90.8771V86.73H91.8771H92.8771V83.96H91.8771ZM91.8771 86.73H90.8771C90.8771 86.6425 90.8937 86.5437 90.9355 86.4444C90.977 86.3457 91.0342 86.2687 91.09 86.2129L91.7971 86.92L92.5042 87.6271C92.7391 87.3922 92.8771 87.0769 92.8771 86.73H91.8771ZM91.7971 86.92L91.09 86.2129C91.1459 86.157 91.2228 86.0999 91.3216 86.0584C91.4208 86.0166 91.5196 86 91.6071 86V87V88C91.954 88 92.2693 87.862 92.5042 87.6271L91.7971 86.92ZM91.6071 87V86H89.8071V87V88H91.6071V87ZM89.8071 87V86C89.8947 86 89.9934 86.0166 90.0927 86.0584C90.1914 86.0999 90.2684 86.157 90.3242 86.2129L89.6171 86.92L88.91 87.6271C89.1449 87.862 89.4602 88 89.8071 88V87ZM89.6171 86.92L90.3242 86.2129C90.3801 86.2687 90.4372 86.3457 90.4787 86.4444C90.5205 86.5437 90.5371 86.6425 90.5371 86.73H89.5371H88.5371C88.5371 87.0769 88.6751 87.3922 88.91 87.6271L89.6171 86.92ZM89.5371 86.73H90.5371V82.07H89.5371H88.5371V86.73H89.5371ZM89.5371 82.07H90.5371C90.5371 82.1575 90.5205 82.2563 90.4787 82.3556C90.4372 82.4543 90.3801 82.5313 90.3242 82.5871L89.6171 81.88L88.91 81.1729C88.6751 81.4078 88.5371 81.7231 88.5371 82.07H89.5371ZM89.6171 81.88L90.3242 82.5871C90.2684 82.643 90.1914 82.7001 90.0927 82.7416C89.9934 82.7834 89.8947 82.8 89.8071 82.8V81.8V80.8C89.4602 80.8 89.1449 80.938 88.91 81.1729L89.6171 81.88ZM89.8071 81.8V82.8H91.4571V81.8V80.8H89.8071V81.8ZM91.4571 81.8V82.8C91.3696 82.8 91.2708 82.7834 91.1716 82.7416C91.0728 82.7001 90.9958 82.643 90.94 82.5871L91.6471 81.88L92.3542 81.1729C92.1193 80.938 91.804 80.8 91.4571 80.8V81.8ZM91.6471 81.88L90.94 82.5871C90.8842 82.5313 90.827 82.4543 90.7855 82.3556C90.7437 82.2563 90.7271 82.1575 90.7271 82.07H91.7271H92.7271C92.7271 81.7231 92.5891 81.4078 92.3542 81.1729L91.6471 81.88ZM91.7271 82.07H90.7271V82.4H91.7271H92.7271V82.07H91.7271ZM91.7271 82.4L92.5197 83.0097C92.5515 82.9685 92.6272 82.8925 92.7907 82.7997L92.2971 81.93L91.8035 81.0603C91.4737 81.2475 91.1694 81.4849 90.9345 81.7903L91.7271 82.4ZM92.2971 81.93L92.7864 82.8021C92.8977 82.7397 93.0335 82.7 93.2171 82.7V81.7V80.7C92.7207 80.7 92.2432 80.8137 91.8079 81.0579L92.2971 81.93ZM93.2171 81.7V82.7C93.4637 82.7 93.5921 82.7463 93.6525 82.7797C93.7006 82.8064 93.7458 82.8456 93.7898 82.9405L94.6971 82.52L95.6044 82.0995C95.3951 81.6477 95.0669 81.2769 94.6217 81.0303C94.1888 80.7904 93.7039 80.7 93.2171 80.7V81.7ZM94.6971 82.52L95.5218 83.0855C95.5823 82.9974 95.6773 82.9048 95.8374 82.8171L95.3571 81.94L94.8768 81.0629C94.477 81.2819 94.132 81.5759 93.8724 81.9545L94.6971 82.52ZM95.3571 81.94L95.8532 82.8082C95.9939 82.7279 96.1141 82.7 96.2271 82.7V81.7V80.7C95.7401 80.7 95.2804 80.8321 94.861 81.0718L95.3571 81.94ZM96.2271 81.7V82.7C96.5016 82.7 96.6639 82.7826 96.8019 82.9368L97.5471 82.27L98.2924 81.6032C97.7503 80.9974 97.0326 80.7 96.2271 80.7V81.7ZM97.5471 82.27L96.8083 82.944C96.9233 83.07 97.0671 83.352 97.0671 83.97H98.0671H99.0671C99.0671 83.0813 98.8642 82.23 98.2859 81.596L97.5471 82.27ZM98.0671 83.97H97.0671V86.73H98.0671H99.0671V83.97H98.0671ZM98.0671 86.73H97.0671C97.0671 86.6425 97.0837 86.5437 97.1255 86.4444C97.167 86.3457 97.2242 86.2687 97.28 86.2129L97.9871 86.92L98.6942 87.6271C98.9291 87.3922 99.0671 87.0769 99.0671 86.73H98.0671ZM97.9871 86.92L97.28 86.2129C97.3358 86.157 97.4128 86.0999 97.5116 86.0584C97.6108 86.0166 97.7096 86 97.7971 86V87V88C98.144 88 98.4593 87.862 98.6942 87.6271L97.9871 86.92ZM97.7971 87V86H96.0371V87V88H97.7971V87ZM96.0371 87V86C96.1247 86 96.2234 86.0166 96.3227 86.0584C96.4214 86.0999 96.4984 86.157 96.5542 86.2129L95.8471 86.92L95.14 87.6271C95.3749 87.862 95.6902 88 96.0371 88V87ZM95.8471 86.92L96.5542 86.2129C96.6101 86.2687 96.6672 86.3457 96.7087 86.4444C96.7505 86.5437 96.7671 86.6425 96.7671 86.73H95.7671H94.7671C94.7671 87.0769 94.9051 87.3922 95.14 87.6271L95.8471 86.92ZM95.7671 86.73H96.7671V84.04H95.7671H94.7671V86.73H95.7671ZM95.7671 84.04H96.7671C96.7671 83.7652 96.7225 83.3784 96.4758 83.0393C96.1862 82.6411 95.7562 82.49 95.3671 82.49V83.49V84.49C95.3199 84.49 95.2309 84.4818 95.1255 84.4334C95.0145 84.3826 94.9228 84.3043 94.8584 84.2157C94.7451 84.0599 94.7671 83.9481 94.7671 84.04H95.7671Z" fill="black" mask="url(#path-8-outside-1_156_37)"/>
<mask id="path-10-outside-2_156_37" maskUnits="userSpaceOnUse" x="41" y="64" width="61" height="11" fill="black">
<rect fill="white" x="41" y="64" width="61" height="11"/>
<path d="M46.24 68.78H48.99C49.0633 68.78 49.1267 68.8067 49.18 68.86C49.2333 68.9133 49.26 68.9767 49.26 69.05V70.35C49.26 71.23 48.9467 71.91 48.32 72.39C47.6933 72.8633 46.8567 73.1 45.81 73.1C44.77 73.1 43.95 72.87 43.35 72.41C42.75 71.9433 42.45 71.2467 42.45 70.32V68.64C42.45 67.7533 42.7567 67.0767 43.37 66.61C43.9833 66.1367 44.8 65.9 45.82 65.9C46.8467 65.9 47.6767 66.1167 48.31 66.55C48.9433 66.9767 49.26 67.5033 49.26 68.13C49.26 68.19 49.2367 68.2433 49.19 68.29C49.15 68.33 49.1 68.35 49.04 68.35H46.83C46.6967 68.35 46.6 68.3133 46.54 68.24C46.4067 68.0667 46.3067 67.9667 46.24 67.94C46.0867 67.88 45.9467 67.85 45.82 67.85C45.3067 67.85 45.05 68.1 45.05 68.6V70.3C45.05 70.8667 45.3233 71.15 45.87 71.15C46.43 71.15 46.71 70.91 46.71 70.43H46.24C46.1667 70.43 46.1033 70.4033 46.05 70.35C45.9967 70.2967 45.97 70.2333 45.97 70.16V69.05C45.97 68.9767 45.9967 68.9133 46.05 68.86C46.1033 68.8067 46.1667 68.78 46.24 68.78ZM52.7648 71.05H55.8448C55.9182 71.05 55.9815 71.0767 56.0348 71.13C56.0882 71.1833 56.1148 71.2467 56.1148 71.32V72.73C56.1148 72.8033 56.0882 72.8667 56.0348 72.92C55.9815 72.9733 55.9182 73 55.8448 73H50.6348C50.5615 73 50.4982 72.9733 50.4448 72.92C50.3915 72.8667 50.3648 72.8033 50.3648 72.73V66.27C50.3648 66.1967 50.3915 66.1333 50.4448 66.08C50.4982 66.0267 50.5615 66 50.6348 66H55.7648C55.8382 66 55.9015 66.0267 55.9548 66.08C56.0082 66.1333 56.0348 66.1967 56.0348 66.27V67.68C56.0348 67.7533 56.0082 67.8167 55.9548 67.87C55.9015 67.9233 55.8382 67.95 55.7648 67.95H52.7648V68.58H55.5448C55.6182 68.58 55.6815 68.6067 55.7348 68.66C55.7882 68.7133 55.8148 68.7767 55.8148 68.85V70.15C55.8148 70.2233 55.7882 70.2867 55.7348 70.34C55.6815 70.3933 55.6182 70.42 55.5448 70.42H52.7648V71.05ZM62.928 66H64.508C64.5813 66 64.6446 66.0267 64.698 66.08C64.7513 66.1333 64.778 66.1967 64.778 66.27V72.73C64.778 72.8033 64.7513 72.8667 64.698 72.92C64.6446 72.9733 64.5813 73 64.508 73H62.698C62.6246 73 62.5613 72.9733 62.508 72.92C62.4546 72.8667 62.428 72.8033 62.428 72.73V69.99L61.768 71.07C61.6613 71.2367 61.538 71.32 61.398 71.32H60.698C60.558 71.32 60.4346 71.2367 60.328 71.07L59.668 69.99V72.73C59.668 72.8033 59.6413 72.8667 59.588 72.92C59.5346 72.9733 59.4713 73 59.398 73H57.588C57.5146 73 57.4513 72.9733 57.398 72.92C57.3446 72.8667 57.318 72.8033 57.318 72.73V66.27C57.318 66.1967 57.3446 66.1333 57.398 66.08C57.4513 66.0267 57.5146 66 57.588 66H59.168C59.3546 66 59.498 66.09 59.598 66.27L61.048 68.67L62.498 66.27C62.598 66.09 62.7413 66 62.928 66ZM68.4777 71.05H71.5577C71.6311 71.05 71.6944 71.0767 71.7477 71.13C71.8011 71.1833 71.8277 71.2467 71.8277 71.32V72.73C71.8277 72.8033 71.8011 72.8667 71.7477 72.92C71.6944 72.9733 71.6311 73 71.5577 73H66.3477C66.2744 73 66.2111 72.9733 66.1577 72.92C66.1044 72.8667 66.0777 72.8033 66.0777 72.73V66.27C66.0777 66.1967 66.1044 66.1333 66.1577 66.08C66.2111 66.0267 66.2744 66 66.3477 66H71.4777C71.5511 66 71.6144 66.0267 71.6677 66.08C71.7211 66.1333 71.7477 66.1967 71.7477 66.27V67.68C71.7477 67.7533 71.7211 67.8167 71.6677 67.87C71.6144 67.9233 71.5511 67.95 71.4777 67.95H68.4777V68.58H71.2577C71.3311 68.58 71.3944 68.6067 71.4477 68.66C71.5011 68.7133 71.5277 68.7767 71.5277 68.85V70.15C71.5277 70.2233 71.5011 70.2867 71.4477 70.34C71.3944 70.3933 71.3311 70.42 71.2577 70.42H68.4777V71.05ZM75.4309 71.05H78.5109C78.5842 71.05 78.6475 71.0767 78.7009 71.13C78.7542 71.1833 78.7809 71.2467 78.7809 71.32V72.73C78.7809 72.8033 78.7542 72.8667 78.7009 72.92C78.6475 72.9733 78.5842 73 78.5109 73H73.3009C73.2275 73 73.1642 72.9733 73.1109 72.92C73.0575 72.8667 73.0309 72.8033 73.0309 72.73V66.27C73.0309 66.1967 73.0575 66.1333 73.1109 66.08C73.1642 66.0267 73.2275 66 73.3009 66H78.4309C78.5042 66 78.5675 66.0267 78.6209 66.08C78.6742 66.1333 78.7009 66.1967 78.7009 66.27V67.68C78.7009 67.7533 78.6742 67.8167 78.6209 67.87C78.5675 67.9233 78.5042 67.95 78.4309 67.95H75.4309V68.58H78.2109C78.2842 68.58 78.3475 68.6067 78.4009 68.66C78.4542 68.7133 78.4809 68.7767 78.4809 68.85V70.15C78.4809 70.2233 78.4542 70.2867 78.4009 70.34C78.3475 70.3933 78.2842 70.42 78.2109 70.42H75.4309V71.05ZM84.204 66H86.014C86.0873 66 86.1507 66.0267 86.204 66.08C86.2573 66.1333 86.284 66.1967 86.284 66.27V72.73C86.284 72.8033 86.2573 72.8667 86.204 72.92C86.1507 72.9733 86.0873 73 86.014 73H84.434C84.2607 73 84.124 72.9233 84.024 72.77L82.334 70.22V72.73C82.334 72.8033 82.3073 72.8667 82.254 72.92C82.2007 72.9733 82.1373 73 82.064 73H80.254C80.1807 73 80.1173 72.9733 80.064 72.92C80.0107 72.8667 79.984 72.8033 79.984 72.73V66.27C79.984 66.1967 80.0107 66.1333 80.064 66.08C80.1173 66.0267 80.1807 66 80.254 66H81.834C82.0207 66 82.1573 66.0767 82.244 66.23L83.934 69V66.27C83.934 66.1967 83.9607 66.1333 84.014 66.08C84.0673 66.0267 84.1307 66 84.204 66ZM87.5016 66H93.3616C93.435 66 93.4983 66.0267 93.5516 66.08C93.605 66.1333 93.6316 66.1967 93.6316 66.27V67.88C93.6316 67.9533 93.605 68.0167 93.5516 68.07C93.4983 68.1233 93.435 68.15 93.3616 68.15H91.7016V72.73C91.7016 72.8033 91.675 72.8667 91.6216 72.92C91.5683 72.9733 91.505 73 91.4316 73H89.4316C89.3583 73 89.295 72.9733 89.2416 72.92C89.1883 72.8667 89.1616 72.8033 89.1616 72.73V68.15H87.5016C87.4283 68.15 87.365 68.1233 87.3116 68.07C87.2583 68.0167 87.2316 67.9533 87.2316 67.88V66.27C87.2316 66.1967 87.2583 66.1333 87.3116 66.08C87.365 66.0267 87.4283 66 87.5016 66ZM96.9836 71.05H100.064C100.137 71.05 100.2 71.0767 100.254 71.13C100.307 71.1833 100.334 71.2467 100.334 71.32V72.73C100.334 72.8033 100.307 72.8667 100.254 72.92C100.2 72.9733 100.137 73 100.064 73H94.8536C94.7803 73 94.7169 72.9733 94.6636 72.92C94.6103 72.8667 94.5836 72.8033 94.5836 72.73V66.27C94.5836 66.1967 94.6103 66.1333 94.6636 66.08C94.7169 66.0267 94.7803 66 94.8536 66H99.9836C100.057 66 100.12 66.0267 100.174 66.08C100.227 66.1333 100.254 66.1967 100.254 66.27V67.68C100.254 67.7533 100.227 67.8167 100.174 67.87C100.12 67.9233 100.057 67.95 99.9836 67.95H96.9836V68.58H99.7636C99.8369 68.58 99.9003 68.6067 99.9536 68.66C100.007 68.7133 100.034 68.7767 100.034 68.85V70.15C100.034 70.2233 100.007 70.2867 99.9536 70.34C99.9003 70.3933 99.8369 70.42 99.7636 70.42H96.9836V71.05Z"/>
</mask>
<path d="M46.24 68.78H48.99C49.0633 68.78 49.1267 68.8067 49.18 68.86C49.2333 68.9133 49.26 68.9767 49.26 69.05V70.35C49.26 71.23 48.9467 71.91 48.32 72.39C47.6933 72.8633 46.8567 73.1 45.81 73.1C44.77 73.1 43.95 72.87 43.35 72.41C42.75 71.9433 42.45 71.2467 42.45 70.32V68.64C42.45 67.7533 42.7567 67.0767 43.37 66.61C43.9833 66.1367 44.8 65.9 45.82 65.9C46.8467 65.9 47.6767 66.1167 48.31 66.55C48.9433 66.9767 49.26 67.5033 49.26 68.13C49.26 68.19 49.2367 68.2433 49.19 68.29C49.15 68.33 49.1 68.35 49.04 68.35H46.83C46.6967 68.35 46.6 68.3133 46.54 68.24C46.4067 68.0667 46.3067 67.9667 46.24 67.94C46.0867 67.88 45.9467 67.85 45.82 67.85C45.3067 67.85 45.05 68.1 45.05 68.6V70.3C45.05 70.8667 45.3233 71.15 45.87 71.15C46.43 71.15 46.71 70.91 46.71 70.43H46.24C46.1667 70.43 46.1033 70.4033 46.05 70.35C45.9967 70.2967 45.97 70.2333 45.97 70.16V69.05C45.97 68.9767 45.9967 68.9133 46.05 68.86C46.1033 68.8067 46.1667 68.78 46.24 68.78ZM52.7648 71.05H55.8448C55.9182 71.05 55.9815 71.0767 56.0348 71.13C56.0882 71.1833 56.1148 71.2467 56.1148 71.32V72.73C56.1148 72.8033 56.0882 72.8667 56.0348 72.92C55.9815 72.9733 55.9182 73 55.8448 73H50.6348C50.5615 73 50.4982 72.9733 50.4448 72.92C50.3915 72.8667 50.3648 72.8033 50.3648 72.73V66.27C50.3648 66.1967 50.3915 66.1333 50.4448 66.08C50.4982 66.0267 50.5615 66 50.6348 66H55.7648C55.8382 66 55.9015 66.0267 55.9548 66.08C56.0082 66.1333 56.0348 66.1967 56.0348 66.27V67.68C56.0348 67.7533 56.0082 67.8167 55.9548 67.87C55.9015 67.9233 55.8382 67.95 55.7648 67.95H52.7648V68.58H55.5448C55.6182 68.58 55.6815 68.6067 55.7348 68.66C55.7882 68.7133 55.8148 68.7767 55.8148 68.85V70.15C55.8148 70.2233 55.7882 70.2867 55.7348 70.34C55.6815 70.3933 55.6182 70.42 55.5448 70.42H52.7648V71.05ZM62.928 66H64.508C64.5813 66 64.6446 66.0267 64.698 66.08C64.7513 66.1333 64.778 66.1967 64.778 66.27V72.73C64.778 72.8033 64.7513 72.8667 64.698 72.92C64.6446 72.9733 64.5813 73 64.508 73H62.698C62.6246 73 62.5613 72.9733 62.508 72.92C62.4546 72.8667 62.428 72.8033 62.428 72.73V69.99L61.768 71.07C61.6613 71.2367 61.538 71.32 61.398 71.32H60.698C60.558 71.32 60.4346 71.2367 60.328 71.07L59.668 69.99V72.73C59.668 72.8033 59.6413 72.8667 59.588 72.92C59.5346 72.9733 59.4713 73 59.398 73H57.588C57.5146 73 57.4513 72.9733 57.398 72.92C57.3446 72.8667 57.318 72.8033 57.318 72.73V66.27C57.318 66.1967 57.3446 66.1333 57.398 66.08C57.4513 66.0267 57.5146 66 57.588 66H59.168C59.3546 66 59.498 66.09 59.598 66.27L61.048 68.67L62.498 66.27C62.598 66.09 62.7413 66 62.928 66ZM68.4777 71.05H71.5577C71.6311 71.05 71.6944 71.0767 71.7477 71.13C71.8011 71.1833 71.8277 71.2467 71.8277 71.32V72.73C71.8277 72.8033 71.8011 72.8667 71.7477 72.92C71.6944 72.9733 71.6311 73 71.5577 73H66.3477C66.2744 73 66.2111 72.9733 66.1577 72.92C66.1044 72.8667 66.0777 72.8033 66.0777 72.73V66.27C66.0777 66.1967 66.1044 66.1333 66.1577 66.08C66.2111 66.0267 66.2744 66 66.3477 66H71.4777C71.5511 66 71.6144 66.0267 71.6677 66.08C71.7211 66.1333 71.7477 66.1967 71.7477 66.27V67.68C71.7477 67.7533 71.7211 67.8167 71.6677 67.87C71.6144 67.9233 71.5511 67.95 71.4777 67.95H68.4777V68.58H71.2577C71.3311 68.58 71.3944 68.6067 71.4477 68.66C71.5011 68.7133 71.5277 68.7767 71.5277 68.85V70.15C71.5277 70.2233 71.5011 70.2867 71.4477 70.34C71.3944 70.3933 71.3311 70.42 71.2577 70.42H68.4777V71.05ZM75.4309 71.05H78.5109C78.5842 71.05 78.6475 71.0767 78.7009 71.13C78.7542 71.1833 78.7809 71.2467 78.7809 71.32V72.73C78.7809 72.8033 78.7542 72.8667 78.7009 72.92C78.6475 72.9733 78.5842 73 78.5109 73H73.3009C73.2275 73 73.1642 72.9733 73.1109 72.92C73.0575 72.8667 73.0309 72.8033 73.0309 72.73V66.27C73.0309 66.1967 73.0575 66.1333 73.1109 66.08C73.1642 66.0267 73.2275 66 73.3009 66H78.4309C78.5042 66 78.5675 66.0267 78.6209 66.08C78.6742 66.1333 78.7009 66.1967 78.7009 66.27V67.68C78.7009 67.7533 78.6742 67.8167 78.6209 67.87C78.5675 67.9233 78.5042 67.95 78.4309 67.95H75.4309V68.58H78.2109C78.2842 68.58 78.3475 68.6067 78.4009 68.66C78.4542 68.7133 78.4809 68.7767 78.4809 68.85V70.15C78.4809 70.2233 78.4542 70.2867 78.4009 70.34C78.3475 70.3933 78.2842 70.42 78.2109 70.42H75.4309V71.05ZM84.204 66H86.014C86.0873 66 86.1507 66.0267 86.204 66.08C86.2573 66.1333 86.284 66.1967 86.284 66.27V72.73C86.284 72.8033 86.2573 72.8667 86.204 72.92C86.1507 72.9733 86.0873 73 86.014 73H84.434C84.2607 73 84.124 72.9233 84.024 72.77L82.334 70.22V72.73C82.334 72.8033 82.3073 72.8667 82.254 72.92C82.2007 72.9733 82.1373 73 82.064 73H80.254C80.1807 73 80.1173 72.9733 80.064 72.92C80.0107 72.8667 79.984 72.8033 79.984 72.73V66.27C79.984 66.1967 80.0107 66.1333 80.064 66.08C80.1173 66.0267 80.1807 66 80.254 66H81.834C82.0207 66 82.1573 66.0767 82.244 66.23L83.934 69V66.27C83.934 66.1967 83.9607 66.1333 84.014 66.08C84.0673 66.0267 84.1307 66 84.204 66ZM87.5016 66H93.3616C93.435 66 93.4983 66.0267 93.5516 66.08C93.605 66.1333 93.6316 66.1967 93.6316 66.27V67.88C93.6316 67.9533 93.605 68.0167 93.5516 68.07C93.4983 68.1233 93.435 68.15 93.3616 68.15H91.7016V72.73C91.7016 72.8033 91.675 72.8667 91.6216 72.92C91.5683 72.9733 91.505 73 91.4316 73H89.4316C89.3583 73 89.295 72.9733 89.2416 72.92C89.1883 72.8667 89.1616 72.8033 89.1616 72.73V68.15H87.5016C87.4283 68.15 87.365 68.1233 87.3116 68.07C87.2583 68.0167 87.2316 67.9533 87.2316 67.88V66.27C87.2316 66.1967 87.2583 66.1333 87.3116 66.08C87.365 66.0267 87.4283 66 87.5016 66ZM96.9836 71.05H100.064C100.137 71.05 100.2 71.0767 100.254 71.13C100.307 71.1833 100.334 71.2467 100.334 71.32V72.73C100.334 72.8033 100.307 72.8667 100.254 72.92C100.2 72.9733 100.137 73 100.064 73H94.8536C94.7803 73 94.7169 72.9733 94.6636 72.92C94.6103 72.8667 94.5836 72.8033 94.5836 72.73V66.27C94.5836 66.1967 94.6103 66.1333 94.6636 66.08C94.7169 66.0267 94.7803 66 94.8536 66H99.9836C100.057 66 100.12 66.0267 100.174 66.08C100.227 66.1333 100.254 66.1967 100.254 66.27V67.68C100.254 67.7533 100.227 67.8167 100.174 67.87C100.12 67.9233 100.057 67.95 99.9836 67.95H96.9836V68.58H99.7636C99.8369 68.58 99.9003 68.6067 99.9536 68.66C100.007 68.7133 100.034 68.7767 100.034 68.85V70.15C100.034 70.2233 100.007 70.2867 99.9536 70.34C99.9003 70.3933 99.8369 70.42 99.7636 70.42H96.9836V71.05Z" fill="#12FE1A"/>
<path d="M49.18 68.86L49.8871 68.1529L49.8871 68.1529L49.18 68.86ZM48.32 72.39L48.9227 73.188L48.9281 73.1839L48.32 72.39ZM43.35 72.41L42.736 73.1994L42.7416 73.2036L43.35 72.41ZM43.37 66.61L43.9755 67.4058L43.981 67.4017L43.37 66.61ZM48.31 66.55L47.7453 67.3753L47.7513 67.3794L48.31 66.55ZM49.19 68.29L49.8971 68.9971L49.8971 68.9971L49.19 68.29ZM46.54 68.24L45.7474 68.8497L45.7565 68.8616L45.766 68.8732L46.54 68.24ZM46.24 67.94L46.6114 67.0115L46.6044 67.0088L46.24 67.94ZM46.71 70.43H47.71V69.43H46.71V70.43ZM46.05 70.35L46.7571 69.6429L46.7571 69.6429L46.05 70.35ZM46.24 68.78V69.78H48.99V68.78V67.78H46.24V68.78ZM48.99 68.78V69.78C48.9025 69.78 48.8037 69.7634 48.7044 69.7216C48.6057 69.6801 48.5287 69.623 48.4729 69.5671L49.18 68.86L49.8871 68.1529C49.6522 67.918 49.3369 67.78 48.99 67.78V68.78ZM49.18 68.86L48.4729 69.5671C48.417 69.5113 48.3599 69.4343 48.3184 69.3356C48.2766 69.2363 48.26 69.1375 48.26 69.05H49.26H50.26C50.26 68.7031 50.122 68.3878 49.8871 68.1529L49.18 68.86ZM49.26 69.05H48.26V70.35H49.26H50.26V69.05H49.26ZM49.26 70.35H48.26C48.26 70.9597 48.0608 71.3289 47.7119 71.5961L48.32 72.39L48.9281 73.1839C49.8326 72.4911 50.26 71.5003 50.26 70.35H49.26ZM48.32 72.39L47.7173 71.592C47.314 71.8967 46.7111 72.1 45.81 72.1V73.1V74.1C47.0022 74.1 48.0727 73.83 48.9227 73.188L48.32 72.39ZM45.81 73.1V72.1C44.9086 72.1 44.3287 71.9003 43.9584 71.6164L43.35 72.41L42.7416 73.2036C43.5713 73.8397 44.6314 74.1 45.81 74.1V73.1ZM43.35 72.41L43.9639 71.6206C43.6613 71.3852 43.45 71.0132 43.45 70.32H42.45H41.45C41.45 71.4801 41.8387 72.5014 42.7361 73.1994L43.35 72.41ZM42.45 70.32H43.45V68.64H42.45H41.45V70.32H42.45ZM42.45 68.64H43.45C43.45 68.0123 43.6504 67.6532 43.9755 67.4058L43.37 66.61L42.7645 65.8142C41.863 66.5001 41.45 67.4944 41.45 68.64H42.45ZM43.37 66.61L43.981 67.4017C44.3709 67.1007 44.951 66.9 45.82 66.9V65.9V64.9C44.649 64.9 43.5958 65.1726 42.759 65.8183L43.37 66.61ZM45.82 65.9V66.9C46.712 66.9 47.326 67.0884 47.7453 67.3753L48.31 66.55L48.8747 65.7247C48.0273 65.1449 46.9814 64.9 45.82 64.9V65.9ZM48.31 66.55L47.7513 67.3794C48.1775 67.6665 48.26 67.9111 48.26 68.13H49.26H50.26C50.26 67.0955 49.7091 66.2868 48.8687 65.7206L48.31 66.55ZM49.26 68.13H48.26C48.26 68.0264 48.281 67.9178 48.3263 67.8142C48.3709 67.7124 48.4298 67.636 48.4829 67.5829L49.19 68.29L49.8971 68.9971C50.1107 68.7835 50.26 68.483 50.26 68.13H49.26ZM49.19 68.29L48.4829 67.5829C48.5537 67.5121 48.6441 67.4493 48.7511 67.4065C48.857 67.3642 48.9573 67.35 49.04 67.35V68.35V69.35C49.3474 69.35 49.6573 69.2369 49.8971 68.9971L49.19 68.29ZM49.04 68.35V67.35H46.83V68.35V69.35H49.04V68.35ZM46.83 68.35V67.35C46.8687 67.35 47.1157 67.3644 47.314 67.6068L46.54 68.24L45.766 68.8732C46.0843 69.2622 46.5246 69.35 46.83 69.35V68.35ZM46.54 68.24L47.3326 67.6303C47.2522 67.5257 47.1644 67.4202 47.0721 67.3279C47.0012 67.257 46.8412 67.1034 46.6114 67.0115L46.24 67.94L45.8686 68.8685C45.8181 68.8483 45.7789 68.8271 45.7521 68.8109C45.7248 68.7946 45.7044 68.7799 45.6912 68.7699C45.666 68.7508 45.6546 68.7388 45.6579 68.7421C45.6602 68.7444 45.6693 68.7538 45.6857 68.773C45.7018 68.7919 45.7223 68.8171 45.7474 68.8497L46.54 68.24ZM46.24 67.94L46.6044 67.0088C46.3681 66.9163 46.1026 66.85 45.82 66.85V67.85V68.85C45.8045 68.85 45.8006 68.8482 45.8105 68.8503C45.8205 68.8525 45.8419 68.8581 45.8756 68.8712L46.24 67.94ZM45.82 67.85V66.85C45.4157 66.85 44.9276 66.9483 44.5448 67.3212C44.1571 67.6988 44.05 68.1891 44.05 68.6H45.05H46.05C46.05 68.5109 46.0713 68.6262 45.9402 68.7538C45.8141 68.8767 45.711 68.85 45.82 68.85V67.85ZM45.05 68.6H44.05V70.3H45.05H46.05V68.6H45.05ZM45.05 70.3H44.05C44.05 70.7287 44.1529 71.2354 44.5353 71.6318C44.9241 72.0349 45.4332 72.15 45.87 72.15V71.15V70.15C45.8169 70.15 45.812 70.1428 45.8378 70.1517C45.8689 70.1624 45.9228 70.1894 45.9747 70.2432C46.0258 70.2962 46.0469 70.3462 46.0532 70.3657C46.0581 70.3809 46.05 70.3644 46.05 70.3H45.05ZM45.87 71.15V72.15C46.2697 72.15 46.756 72.0676 47.1508 71.7293C47.5751 71.3656 47.71 70.8679 47.71 70.43H46.71H45.71C45.71 70.455 45.7061 70.4324 45.7255 70.3826C45.7472 70.3267 45.7883 70.263 45.8492 70.2107C45.9069 70.1613 45.9546 70.1458 45.9628 70.1435C45.9681 70.1419 45.9418 70.15 45.87 70.15V71.15ZM46.71 70.43V69.43H46.24V70.43V71.43H46.71V70.43ZM46.24 70.43V69.43C46.3275 69.43 46.4263 69.4466 46.5256 69.4884C46.6243 69.5299 46.7013 69.587 46.7571 69.6429L46.05 70.35L45.3429 71.0571C45.5778 71.292 45.8931 71.43 46.24 71.43V70.43ZM46.05 70.35L46.7571 69.6429C46.813 69.6987 46.8701 69.7757 46.9116 69.8744C46.9534 69.9737 46.97 70.0725 46.97 70.16H45.97H44.97C44.97 70.5069 45.108 70.8222 45.3429 71.0571L46.05 70.35ZM45.97 70.16H46.97V69.05H45.97H44.97V70.16H45.97ZM45.97 69.05H46.97C46.97 69.1375 46.9534 69.2363 46.9116 69.3356C46.8701 69.4343 46.813 69.5113 46.7571 69.5671L46.05 68.86L45.3429 68.1529C45.108 68.3878 44.97 68.7031 44.97 69.05H45.97ZM46.05 68.86L46.7571 69.5671C46.7013 69.623 46.6243 69.6801 46.5256 69.7216C46.4263 69.7634 46.3275 69.78 46.24 69.78V68.78V67.78C45.8931 67.78 45.5778 67.918 45.3429 68.1529L46.05 68.86ZM52.7648 71.05H51.7648V72.05H52.7648V71.05ZM50.4448 72.92L51.152 72.2129V72.2129L50.4448 72.92ZM50.4448 66.08L51.152 66.7871L51.152 66.7871L50.4448 66.08ZM55.9548 66.08L55.2477 66.7871L55.2477 66.7871L55.9548 66.08ZM55.9548 67.87L55.2477 67.1629L55.2477 67.1629L55.9548 67.87ZM52.7648 67.95V66.95H51.7648V67.95H52.7648ZM52.7648 68.58H51.7648V69.58H52.7648V68.58ZM55.7348 68.66L56.442 67.9529V67.9529L55.7348 68.66ZM55.7348 70.34L56.4419 71.0471L56.442 71.0471L55.7348 70.34ZM52.7648 70.42V69.42H51.7648V70.42H52.7648ZM52.7648 71.05V72.05H55.8448V71.05V70.05H52.7648V71.05ZM55.8448 71.05V72.05C55.7573 72.05 55.6585 72.0334 55.5593 71.9916C55.4606 71.9501 55.3836 71.893 55.3277 71.8371L56.0348 71.13L56.742 70.4229C56.5071 70.188 56.1917 70.05 55.8448 70.05V71.05ZM56.0348 71.13L55.3277 71.8371C55.2719 71.7813 55.2148 71.7043 55.1732 71.6056C55.1314 71.5063 55.1148 71.4075 55.1148 71.32H56.1148H57.1148C57.1148 70.9731 56.9768 70.6578 56.742 70.4229L56.0348 71.13ZM56.1148 71.32H55.1148V72.73H56.1148H57.1148V71.32H56.1148ZM56.1148 72.73H55.1148C55.1148 72.6425 55.1314 72.5437 55.1732 72.4444C55.2148 72.3457 55.2719 72.2687 55.3277 72.2129L56.0348 72.92L56.742 73.6271C56.9768 73.3922 57.1148 73.0769 57.1148 72.73H56.1148ZM56.0348 72.92L55.3277 72.2129C55.3836 72.157 55.4606 72.0999 55.5593 72.0584C55.6585 72.0166 55.7573 72 55.8448 72V73V74C56.1917 74 56.5071 73.862 56.742 73.6271L56.0348 72.92ZM55.8448 73V72H50.6348V73V74H55.8448V73ZM50.6348 73V72C50.7224 72 50.8211 72.0166 50.9204 72.0584C51.0191 72.0999 51.0961 72.157 51.152 72.2129L50.4448 72.92L49.7377 73.6271C49.9726 73.862 50.2879 74 50.6348 74V73ZM50.4448 72.92L51.152 72.2129C51.2078 72.2687 51.2649 72.3457 51.3065 72.4444C51.3483 72.5437 51.3648 72.6425 51.3648 72.73H50.3648H49.3648C49.3648 73.0769 49.5029 73.3922 49.7377 73.6271L50.4448 72.92ZM50.3648 72.73H51.3648V66.27H50.3648H49.3648V72.73H50.3648ZM50.3648 66.27H51.3648C51.3648 66.3575 51.3483 66.4563 51.3065 66.5556C51.2649 66.6543 51.2078 66.7313 51.152 66.7871L50.4448 66.08L49.7377 65.3729C49.5029 65.6078 49.3648 65.9231 49.3648 66.27H50.3648ZM50.4448 66.08L51.152 66.7871C51.0961 66.843 51.0191 66.9001 50.9204 66.9416C50.8211 66.9834 50.7224 67 50.6348 67V66V65C50.2879 65 49.9726 65.138 49.7377 65.3729L50.4448 66.08ZM50.6348 66V67H55.7648V66V65H50.6348V66ZM55.7648 66V67C55.6773 67 55.5785 66.9834 55.4793 66.9416C55.3806 66.9001 55.3036 66.843 55.2477 66.7871L55.9548 66.08L56.662 65.3729C56.4271 65.138 56.1117 65 55.7648 65V66ZM55.9548 66.08L55.2477 66.7871C55.1919 66.7313 55.1348 66.6543 55.0932 66.5556C55.0514 66.4563 55.0348 66.3575 55.0348 66.27H56.0348H57.0348C57.0348 65.9231 56.8968 65.6078 56.662 65.3729L55.9548 66.08ZM56.0348 66.27H55.0348V67.68H56.0348H57.0348V66.27H56.0348ZM56.0348 67.68H55.0348C55.0348 67.5925 55.0514 67.4937 55.0932 67.3944C55.1348 67.2957 55.1919 67.2187 55.2477 67.1629L55.9548 67.87L56.662 68.5771C56.8968 68.3422 57.0348 68.0269 57.0348 67.68H56.0348ZM55.9548 67.87L55.2477 67.1629C55.3036 67.107 55.3806 67.0499 55.4793 67.0084C55.5785 66.9666 55.6773 66.95 55.7648 66.95V67.95V68.95C56.1117 68.95 56.4271 68.812 56.662 68.5771L55.9548 67.87ZM55.7648 67.95V66.95H52.7648V67.95V68.95H55.7648V67.95ZM52.7648 67.95H51.7648V68.58H52.7648H53.7648V67.95H52.7648ZM52.7648 68.58V69.58H55.5448V68.58V67.58H52.7648V68.58ZM55.5448 68.58V69.58C55.4573 69.58 55.3585 69.5634 55.2593 69.5216C55.1606 69.4801 55.0836 69.423 55.0277 69.3671L55.7348 68.66L56.442 67.9529C56.2071 67.718 55.8917 67.58 55.5448 67.58V68.58ZM55.7348 68.66L55.0277 69.3671C54.9719 69.3113 54.9148 69.2343 54.8732 69.1356C54.8314 69.0363 54.8148 68.9375 54.8148 68.85H55.8148H56.8148C56.8148 68.5031 56.6768 68.1878 56.442 67.9529L55.7348 68.66ZM55.8148 68.85H54.8148V70.15H55.8148H56.8148V68.85H55.8148ZM55.8148 70.15H54.8148C54.8148 70.0625 54.8314 69.9637 54.8732 69.8644C54.9148 69.7657 54.9719 69.6887 55.0277 69.6329L55.7348 70.34L56.442 71.0471C56.6768 70.8122 56.8148 70.4969 56.8148 70.15H55.8148ZM55.7348 70.34L55.0277 69.6329C55.0836 69.577 55.1606 69.5199 55.2593 69.4784C55.3586 69.4366 55.4573 69.42 55.5448 69.42V70.42V71.42C55.8917 71.42 56.2071 71.282 56.4419 71.0471L55.7348 70.34ZM55.5448 70.42V69.42H52.7648V70.42V71.42H55.5448V70.42ZM52.7648 70.42H51.7648V71.05H52.7648H53.7648V70.42H52.7648ZM62.508 72.92L63.2151 72.2129L63.2151 72.2129L62.508 72.92ZM62.428 69.99H63.428V66.4359L61.5747 69.4685L62.428 69.99ZM61.768 71.07L62.6102 71.6091L62.6158 71.6003L62.6213 71.5914L61.768 71.07ZM60.328 71.07L59.4747 71.5914L59.4801 71.6003L59.4857 71.6091L60.328 71.07ZM59.668 69.99L60.5213 69.4685L58.668 66.4359V69.99H59.668ZM59.588 72.92L60.2951 73.6271L60.2951 73.6271L59.588 72.92ZM57.398 72.92L58.1051 72.2129V72.2129L57.398 72.92ZM57.398 66.08L58.1051 66.7871V66.7871L57.398 66.08ZM59.598 66.27L58.7238 66.7556L58.7326 66.7715L58.7421 66.7871L59.598 66.27ZM61.048 68.67L60.1921 69.1871L61.048 70.6038L61.9039 69.1871L61.048 68.67ZM62.498 66.27L63.3539 66.7871L63.3633 66.7715L63.3721 66.7556L62.498 66.27ZM62.928 66V67H64.508V66V65H62.928V66ZM64.508 66V67C64.4204 67 64.3217 66.9834 64.2224 66.9416C64.1237 66.9001 64.0467 66.843 63.9909 66.7871L64.698 66.08L65.4051 65.3729C65.1702 65.138 64.8549 65 64.508 65V66ZM64.698 66.08L63.9909 66.7871C63.935 66.7313 63.8779 66.6543 63.8363 66.5556C63.7945 66.4563 63.778 66.3575 63.778 66.27H64.778H65.778C65.778 65.9231 65.64 65.6078 65.4051 65.3729L64.698 66.08ZM64.778 66.27H63.778V72.73H64.778H65.778V66.27H64.778ZM64.778 72.73H63.778C63.778 72.6425 63.7945 72.5437 63.8363 72.4444C63.8779 72.3457 63.935 72.2687 63.9909 72.2129L64.698 72.92L65.4051 73.6271C65.64 73.3922 65.778 73.0769 65.778 72.73H64.778ZM64.698 72.92L63.9909 72.2129C64.0467 72.157 64.1237 72.0999 64.2224 72.0584C64.3217 72.0166 64.4204 72 64.508 72V73V74C64.8549 74 65.1702 73.862 65.4051 73.6271L64.698 72.92ZM64.508 73V72H62.698V73V74H64.508V73ZM62.698 73V72C62.7855 72 62.8843 72.0166 62.9835 72.0584C63.0822 72.0999 63.1592 72.157 63.2151 72.2129L62.508 72.92L61.8009 73.6271C62.0357 73.862 62.3511 74 62.698 74V73ZM62.508 72.92L63.2151 72.2129C63.2709 72.2687 63.328 72.3457 63.3696 72.4444C63.4114 72.5437 63.428 72.6425 63.428 72.73H62.428H61.428C61.428 73.0769 61.566 73.3922 61.8009 73.6271L62.508 72.92ZM62.428 72.73H63.428V69.99H62.428H61.428V72.73H62.428ZM62.428 69.99L61.5747 69.4685L60.9147 70.5486L61.768 71.07L62.6213 71.5914L63.2812 70.5114L62.428 69.99ZM61.768 71.07L60.9257 70.5309C60.9257 70.5309 60.9274 70.5283 60.931 70.5235C60.9347 70.5187 60.9405 70.5114 60.9489 70.5023C60.9655 70.4843 60.9938 70.4572 61.0356 70.4289C61.1283 70.3663 61.2556 70.32 61.398 70.32V71.32V72.32C62.0087 72.32 62.4028 71.9332 62.6102 71.6091L61.768 71.07ZM61.398 71.32V70.32H60.698V71.32V72.32H61.398V71.32ZM60.698 71.32V70.32C60.8404 70.32 60.9677 70.3663 61.0603 70.4289C61.1022 70.4572 61.1304 70.4843 61.147 70.5023C61.1554 70.5114 61.1613 70.5187 61.1649 70.5235C61.1685 70.5283 61.1702 70.5309 61.1702 70.5309L60.328 71.07L59.4857 71.6091C59.6932 71.9332 60.0872 72.32 60.698 72.32V71.32ZM60.328 71.07L61.1813 70.5485L60.5213 69.4685L59.668 69.99L58.8147 70.5114L59.4747 71.5914L60.328 71.07ZM59.668 69.99H58.668V72.73H59.668H60.668V69.99H59.668ZM59.668 72.73H58.668C58.668 72.6425 58.6845 72.5437 58.7263 72.4444C58.7679 72.3457 58.825 72.2687 58.8809 72.2129L59.588 72.92L60.2951 73.6271C60.53 73.3922 60.668 73.0769 60.668 72.73H59.668ZM59.588 72.92L58.8809 72.2129C58.9367 72.157 59.0137 72.0999 59.1124 72.0584C59.2117 72.0166 59.3104 72 59.398 72V73V74C59.7449 74 60.0602 73.862 60.2951 73.6271L59.588 72.92ZM59.398 73V72H57.588V73V74H59.398V73ZM57.588 73V72C57.6755 72 57.7743 72.0166 57.8735 72.0584C57.9722 72.0999 58.0492 72.157 58.1051 72.2129L57.398 72.92L56.6909 73.6271C56.9257 73.862 57.2411 74 57.588 74V73ZM57.398 72.92L58.1051 72.2129C58.1609 72.2687 58.218 72.3457 58.2596 72.4444C58.3014 72.5437 58.318 72.6425 58.318 72.73H57.318H56.318C56.318 73.0769 56.456 73.3922 56.6909 73.6271L57.398 72.92ZM57.318 72.73H58.318V66.27H57.318H56.318V72.73H57.318ZM57.318 66.27H58.318C58.318 66.3575 58.3014 66.4563 58.2596 66.5556C58.218 66.6543 58.1609 66.7313 58.1051 66.7871L57.398 66.08L56.6909 65.3729C56.456 65.6078 56.318 65.9231 56.318 66.27H57.318ZM57.398 66.08L58.1051 66.7871C58.0492 66.843 57.9722 66.9001 57.8735 66.9416C57.7743 66.9834 57.6755 67 57.588 67V66V65C57.2411 65 56.9257 65.138 56.6909 65.3729L57.398 66.08ZM57.588 66V67H59.168V66V65H57.588V66ZM59.168 66V67C59.0932 67 58.9875 66.9796 58.8837 66.9144C58.7848 66.8523 58.7381 66.7813 58.7238 66.7556L59.598 66.27L60.4721 65.7844C60.218 65.3268 59.7613 65 59.168 65V66ZM59.598 66.27L58.7421 66.7871L60.1921 69.1871L61.048 68.67L61.9039 68.1529L60.4539 65.7529L59.598 66.27ZM61.048 68.67L61.9039 69.1871L63.3539 66.7871L62.498 66.27L61.6421 65.7529L60.1921 68.1529L61.048 68.67ZM62.498 66.27L63.3721 66.7556C63.3579 66.7813 63.3112 66.8523 63.2122 66.9144C63.1084 66.9796 63.0027 67 62.928 67V66V65C62.3346 65 61.878 65.3268 61.6238 65.7844L62.498 66.27ZM68.4777 71.05H67.4777V72.05H68.4777V71.05ZM66.1577 72.92L66.8648 72.2129V72.2129L66.1577 72.92ZM66.1577 66.08L66.8648 66.7871V66.7871L66.1577 66.08ZM71.6677 66.08L70.9606 66.7871L70.9606 66.7871L71.6677 66.08ZM71.6677 67.87L70.9606 67.1629L70.9606 67.1629L71.6677 67.87ZM68.4777 67.95V66.95H67.4777V67.95H68.4777ZM68.4777 68.58H67.4777V69.58H68.4777V68.58ZM71.4477 68.66L72.1548 67.9529V67.9529L71.4477 68.66ZM71.4477 70.34L72.1548 71.0471L72.1548 71.0471L71.4477 70.34ZM68.4777 70.42V69.42H67.4777V70.42H68.4777ZM68.4777 71.05V72.05H71.5577V71.05V70.05H68.4777V71.05ZM71.5577 71.05V72.05C71.4702 72.05 71.3714 72.0334 71.2722 71.9916C71.1735 71.9501 71.0965 71.893 71.0406 71.8371L71.7477 71.13L72.4548 70.4229C72.22 70.188 71.9046 70.05 71.5577 70.05V71.05ZM71.7477 71.13L71.0406 71.8371C70.9848 71.7813 70.9277 71.7043 70.8861 71.6056C70.8443 71.5063 70.8277 71.4075 70.8277 71.32H71.8277H72.8277C72.8277 70.9731 72.6897 70.6578 72.4548 70.4229L71.7477 71.13ZM71.8277 71.32H70.8277V72.73H71.8277H72.8277V71.32H71.8277ZM71.8277 72.73H70.8277C70.8277 72.6425 70.8443 72.5437 70.8861 72.4444C70.9277 72.3457 70.9848 72.2687 71.0406 72.2129L71.7477 72.92L72.4548 73.6271C72.6897 73.3922 72.8277 73.0769 72.8277 72.73H71.8277ZM71.7477 72.92L71.0406 72.2129C71.0965 72.157 71.1735 72.0999 71.2722 72.0584C71.3714 72.0166 71.4702 72 71.5577 72V73V74C71.9046 74 72.22 73.862 72.4548 73.6271L71.7477 72.92ZM71.5577 73V72H66.3477V73V74H71.5577V73ZM66.3477 73V72C66.4353 72 66.534 72.0166 66.6333 72.0584C66.732 72.0999 66.809 72.157 66.8648 72.2129L66.1577 72.92L65.4506 73.6271C65.6855 73.862 66.0008 74 66.3477 74V73ZM66.1577 72.92L66.8648 72.2129C66.9207 72.2687 66.9778 72.3457 67.0194 72.4444C67.0612 72.5437 67.0777 72.6425 67.0777 72.73H66.0777H65.0777C65.0777 73.0769 65.2157 73.3922 65.4506 73.6271L66.1577 72.92ZM66.0777 72.73H67.0777V66.27H66.0777H65.0777V72.73H66.0777ZM66.0777 66.27H67.0777C67.0777 66.3575 67.0612 66.4563 67.0194 66.5556C66.9778 66.6543 66.9207 66.7313 66.8648 66.7871L66.1577 66.08L65.4506 65.3729C65.2157 65.6078 65.0777 65.9231 65.0777 66.27H66.0777ZM66.1577 66.08L66.8648 66.7871C66.809 66.843 66.732 66.9001 66.6333 66.9416C66.534 66.9834 66.4353 67 66.3477 67V66V65C66.0008 65 65.6855 65.138 65.4506 65.3729L66.1577 66.08ZM66.3477 66V67H71.4777V66V65H66.3477V66ZM71.4777 66V67C71.3902 67 71.2914 66.9834 71.1922 66.9416C71.0935 66.9001 71.0165 66.843 70.9606 66.7871L71.6677 66.08L72.3748 65.3729C72.14 65.138 71.8246 65 71.4777 65V66ZM71.6677 66.08L70.9606 66.7871C70.9048 66.7313 70.8477 66.6543 70.8061 66.5556C70.7643 66.4563 70.7477 66.3575 70.7477 66.27H71.7477H72.7477C72.7477 65.9231 72.6097 65.6078 72.3748 65.3729L71.6677 66.08ZM71.7477 66.27H70.7477V67.68H71.7477H72.7477V66.27H71.7477ZM71.7477 67.68H70.7477C70.7477 67.5925 70.7643 67.4937 70.8061 67.3944C70.8477 67.2957 70.9048 67.2187 70.9606 67.1629L71.6677 67.87L72.3748 68.5771C72.6097 68.3422 72.7477 68.0269 72.7477 67.68H71.7477ZM71.6677 67.87L70.9606 67.1629C71.0165 67.107 71.0935 67.0499 71.1922 67.0084C71.2914 66.9666 71.3902 66.95 71.4777 66.95V67.95V68.95C71.8246 68.95 72.14 68.812 72.3748 68.5771L71.6677 67.87ZM71.4777 67.95V66.95H68.4777V67.95V68.95H71.4777V67.95ZM68.4777 67.95H67.4777V68.58H68.4777H69.4777V67.95H68.4777ZM68.4777 68.58V69.58H71.2577V68.58V67.58H68.4777V68.58ZM71.2577 68.58V69.58C71.1702 69.58 71.0714 69.5634 70.9722 69.5216C70.8735 69.4801 70.7965 69.423 70.7406 69.3671L71.4477 68.66L72.1548 67.9529C71.92 67.718 71.6046 67.58 71.2577 67.58V68.58ZM71.4477 68.66L70.7406 69.3671C70.6848 69.3113 70.6277 69.2343 70.5861 69.1356C70.5443 69.0363 70.5277 68.9375 70.5277 68.85H71.5277H72.5277C72.5277 68.5031 72.3897 68.1878 72.1548 67.9529L71.4477 68.66ZM71.5277 68.85H70.5277V70.15H71.5277H72.5277V68.85H71.5277ZM71.5277 70.15H70.5277C70.5277 70.0625 70.5443 69.9637 70.5861 69.8644C70.6277 69.7657 70.6848 69.6887 70.7406 69.6329L71.4477 70.34L72.1548 71.0471C72.3897 70.8122 72.5277 70.4969 72.5277 70.15H71.5277ZM71.4477 70.34L70.7406 69.6329C70.7965 69.577 70.8735 69.5199 70.9722 69.4784C71.0714 69.4366 71.1702 69.42 71.2577 69.42V70.42V71.42C71.6046 71.42 71.92 71.282 72.1548 71.0471L71.4477 70.34ZM71.2577 70.42V69.42H68.4777V70.42V71.42H71.2577V70.42ZM68.4777 70.42H67.4777V71.05H68.4777H69.4777V70.42H68.4777ZM75.4309 71.05H74.4309V72.05H75.4309V71.05ZM73.1109 72.92L73.818 72.2129V72.2129L73.1109 72.92ZM73.1109 66.08L73.818 66.7871V66.7871L73.1109 66.08ZM78.6209 66.08L77.9137 66.7871L77.9138 66.7871L78.6209 66.08ZM78.6209 67.87L77.9138 67.1629L77.9137 67.1629L78.6209 67.87ZM75.4309 67.95V66.95H74.4309V67.95H75.4309ZM75.4309 68.58H74.4309V69.58H75.4309V68.58ZM78.4009 68.66L79.108 67.9529V67.9529L78.4009 68.66ZM78.4009 70.34L79.108 71.0471L79.108 71.0471L78.4009 70.34ZM75.4309 70.42V69.42H74.4309V70.42H75.4309ZM75.4309 71.05V72.05H78.5109V71.05V70.05H75.4309V71.05ZM78.5109 71.05V72.05C78.4233 72.05 78.3246 72.0334 78.2253 71.9916C78.1266 71.9501 78.0496 71.893 77.9938 71.8371L78.7009 71.13L79.408 70.4229C79.1731 70.188 78.8578 70.05 78.5109 70.05V71.05ZM78.7009 71.13L77.9938 71.8371C77.9379 71.7813 77.8808 71.7043 77.8392 71.6056C77.7974 71.5063 77.7809 71.4075 77.7809 71.32H78.7809H79.7809C79.7809 70.9731 79.6429 70.6578 79.408 70.4229L78.7009 71.13ZM78.7809 71.32H77.7809V72.73H78.7809H79.7809V71.32H78.7809ZM78.7809 72.73H77.7809C77.7809 72.6425 77.7974 72.5437 77.8392 72.4444C77.8808 72.3457 77.9379 72.2687 77.9938 72.2129L78.7009 72.92L79.408 73.6271C79.6429 73.3922 79.7809 73.0769 79.7809 72.73H78.7809ZM78.7009 72.92L77.9938 72.2129C78.0496 72.157 78.1266 72.0999 78.2253 72.0584C78.3246 72.0166 78.4233 72 78.5109 72V73V74C78.8578 74 79.1731 73.862 79.408 73.6271L78.7009 72.92ZM78.5109 73V72H73.3009V73V74H78.5109V73ZM73.3009 73V72C73.3884 72 73.4872 72.0166 73.5864 72.0584C73.6851 72.0999 73.7621 72.157 73.818 72.2129L73.1109 72.92L72.4038 73.6271C72.6386 73.862 72.954 74 73.3009 74V73ZM73.1109 72.92L73.818 72.2129C73.8738 72.2687 73.9309 72.3457 73.9725 72.4444C74.0143 72.5437 74.0309 72.6425 74.0309 72.73H73.0309H72.0309C72.0309 73.0769 72.1689 73.3922 72.4038 73.6271L73.1109 72.92ZM73.0309 72.73H74.0309V66.27H73.0309H72.0309V72.73H73.0309ZM73.0309 66.27H74.0309C74.0309 66.3575 74.0143 66.4563 73.9725 66.5556C73.9309 66.6543 73.8738 66.7313 73.818 66.7871L73.1109 66.08L72.4038 65.3729C72.1689 65.6078 72.0309 65.9231 72.0309 66.27H73.0309ZM73.1109 66.08L73.818 66.7871C73.7621 66.843 73.6851 66.9001 73.5864 66.9416C73.4872 66.9834 73.3884 67 73.3009 67V66V65C72.954 65 72.6386 65.138 72.4038 65.3729L73.1109 66.08ZM73.3009 66V67H78.4309V66V65H73.3009V66ZM78.4309 66V67C78.3433 67 78.2446 66.9834 78.1453 66.9416C78.0466 66.9001 77.9696 66.843 77.9137 66.7871L78.6209 66.08L79.328 65.3729C79.0931 65.138 78.7778 65 78.4309 65V66ZM78.6209 66.08L77.9138 66.7871C77.8579 66.7313 77.8008 66.6543 77.7592 66.5556C77.7174 66.4563 77.7009 66.3575 77.7009 66.27H78.7009H79.7009C79.7009 65.9231 79.5629 65.6078 79.328 65.3729L78.6209 66.08ZM78.7009 66.27H77.7009V67.68H78.7009H79.7009V66.27H78.7009ZM78.7009 67.68H77.7009C77.7009 67.5925 77.7174 67.4937 77.7592 67.3944C77.8008 67.2957 77.8579 67.2187 77.9138 67.1629L78.6209 67.87L79.328 68.5771C79.5629 68.3422 79.7009 68.0269 79.7009 67.68H78.7009ZM78.6209 67.87L77.9137 67.1629C77.9696 67.107 78.0466 67.0499 78.1453 67.0084C78.2446 66.9666 78.3433 66.95 78.4309 66.95V67.95V68.95C78.7778 68.95 79.0931 68.812 79.328 68.5771L78.6209 67.87ZM78.4309 67.95V66.95H75.4309V67.95V68.95H78.4309V67.95ZM75.4309 67.95H74.4309V68.58H75.4309H76.4309V67.95H75.4309ZM75.4309 68.58V69.58H78.2109V68.58V67.58H75.4309V68.58ZM78.2109 68.58V69.58C78.1233 69.58 78.0246 69.5634 77.9253 69.5216C77.8266 69.4801 77.7496 69.423 77.6938 69.3671L78.4009 68.66L79.108 67.9529C78.8731 67.718 78.5578 67.58 78.2109 67.58V68.58ZM78.4009 68.66L77.6938 69.3671C77.6379 69.3113 77.5808 69.2343 77.5392 69.1356C77.4974 69.0363 77.4809 68.9375 77.4809 68.85H78.4809H79.4809C79.4809 68.5031 79.3429 68.1878 79.108 67.9529L78.4009 68.66ZM78.4809 68.85H77.4809V70.15H78.4809H79.4809V68.85H78.4809ZM78.4809 70.15H77.4809C77.4809 70.0625 77.4974 69.9637 77.5392 69.8644C77.5808 69.7657 77.6379 69.6887 77.6937 69.6329L78.4009 70.34L79.108 71.0471C79.3429 70.8122 79.4809 70.4969 79.4809 70.15H78.4809ZM78.4009 70.34L77.6938 69.6329C77.7496 69.577 77.8266 69.5199 77.9253 69.4784C78.0246 69.4366 78.1233 69.42 78.2109 69.42V70.42V71.42C78.5578 71.42 78.8731 71.282 79.108 71.0471L78.4009 70.34ZM78.2109 70.42V69.42H75.4309V70.42V71.42H78.2109V70.42ZM75.4309 70.42H74.4309V71.05H75.4309H76.4309V70.42H75.4309ZM84.024 72.77L84.8616 72.2237L84.8575 72.2176L84.024 72.77ZM82.334 70.22L83.1675 69.6676L81.334 66.901V70.22H82.334ZM82.254 72.92L82.9611 73.6271V73.6271L82.254 72.92ZM80.064 72.92L80.7711 72.2129V72.2129L80.064 72.92ZM80.064 66.08L80.7711 66.7871V66.7871L80.064 66.08ZM82.244 66.23L81.3734 66.7221L81.3816 66.7366L81.3903 66.7508L82.244 66.23ZM83.934 69L83.0803 69.5208L84.934 72.5591V69H83.934ZM84.014 66.08L84.7211 66.7871V66.7871L84.014 66.08ZM84.204 66V67H86.014V66V65H84.204V66ZM86.014 66V67C85.9264 67 85.8277 66.9834 85.7284 66.9416C85.6297 66.9001 85.5527 66.843 85.4969 66.7871L86.204 66.08L86.9111 65.3729C86.6762 65.138 86.3609 65 86.014 65V66ZM86.204 66.08L85.4969 66.7871C85.441 66.7313 85.3839 66.6543 85.3424 66.5556C85.3006 66.4563 85.284 66.3575 85.284 66.27H86.284H87.284C87.284 65.9231 87.146 65.6078 86.9111 65.3729L86.204 66.08ZM86.284 66.27H85.284V72.73H86.284H87.284V66.27H86.284ZM86.284 72.73H85.284C85.284 72.6425 85.3006 72.5437 85.3424 72.4444C85.3839 72.3457 85.441 72.2687 85.4969 72.2129L86.204 72.92L86.9111 73.6271C87.146 73.3922 87.284 73.0769 87.284 72.73H86.284ZM86.204 72.92L85.4969 72.2129C85.5527 72.157 85.6297 72.0999 85.7284 72.0584C85.8277 72.0166 85.9264 72 86.014 72V73V74C86.3609 74 86.6762 73.862 86.9111 73.6271L86.204 72.92ZM86.014 73V72H84.434V73V74H86.014V73ZM84.434 73V72C84.5001 72 84.5942 72.0162 84.6907 72.0704C84.785 72.1233 84.8383 72.188 84.8616 72.2237L84.024 72.77L83.1864 73.3163C83.4586 73.7336 83.9006 74 84.434 74V73ZM84.024 72.77L84.8575 72.2176L83.1675 69.6676L82.334 70.22L81.5004 70.7724L83.1904 73.3224L84.024 72.77ZM82.334 70.22H81.334V72.73H82.334H83.334V70.22H82.334ZM82.334 72.73H81.334C81.334 72.6425 81.3506 72.5437 81.3923 72.4444C81.4339 72.3457 81.491 72.2687 81.5469 72.2129L82.254 72.92L82.9611 73.6271C83.196 73.3922 83.334 73.0769 83.334 72.73H82.334ZM82.254 72.92L81.5469 72.2129C81.6027 72.157 81.6797 72.0999 81.7784 72.0584C81.8777 72.0166 81.9764 72 82.064 72V73V74C82.4109 74 82.7262 73.862 82.9611 73.6271L82.254 72.92ZM82.064 73V72H80.254V73V74H82.064V73ZM80.254 73V72C80.3415 72 80.4403 72.0166 80.5395 72.0584C80.6382 72.0999 80.7152 72.157 80.7711 72.2129L80.064 72.92L79.3569 73.6271C79.5918 73.862 79.9071 74 80.254 74V73ZM80.064 72.92L80.7711 72.2129C80.8269 72.2687 80.8841 72.3457 80.9256 72.4444C80.9674 72.5437 80.984 72.6425 80.984 72.73H79.984H78.984C78.984 73.0769 79.122 73.3922 79.3569 73.6271L80.064 72.92ZM79.984 72.73H80.984V66.27H79.984H78.984V72.73H79.984ZM79.984 66.27H80.984C80.984 66.3575 80.9674 66.4563 80.9256 66.5556C80.8841 66.6543 80.8269 66.7313 80.7711 66.7871L80.064 66.08L79.3569 65.3729C79.122 65.6078 78.984 65.9231 78.984 66.27H79.984ZM80.064 66.08L80.7711 66.7871C80.7152 66.843 80.6382 66.9001 80.5395 66.9416C80.4403 66.9834 80.3415 67 80.254 67V66V65C79.9071 65 79.5918 65.138 79.3569 65.3729L80.064 66.08ZM80.254 66V67H81.834V66V65H80.254V66ZM81.834 66V67C81.7888 67 81.6945 66.9898 81.5872 66.9296C81.477 66.8678 81.4086 66.7843 81.3734 66.7221L82.244 66.23L83.1145 65.7379C82.8378 65.2483 82.3547 65 81.834 65V66ZM82.244 66.23L81.3903 66.7508L83.0803 69.5208L83.934 69L84.7876 68.4792L83.0976 65.7092L82.244 66.23ZM83.934 69H84.934V66.27H83.934H82.934V69H83.934ZM83.934 66.27H84.934C84.934 66.3575 84.9174 66.4563 84.8756 66.5556C84.8341 66.6543 84.7769 66.7313 84.7211 66.7871L84.014 66.08L83.3069 65.3729C83.072 65.6078 82.934 65.9231 82.934 66.27H83.934ZM84.014 66.08L84.7211 66.7871C84.6652 66.843 84.5882 66.9001 84.4895 66.9416C84.3903 66.9834 84.2915 67 84.204 67V66V65C83.8571 65 83.5418 65.138 83.3069 65.3729L84.014 66.08ZM93.5516 66.08L94.2588 65.3729L94.2587 65.3729L93.5516 66.08ZM93.5516 68.07L94.2587 68.7771L94.2588 68.7771L93.5516 68.07ZM91.7016 68.15V67.15H90.7016V68.15H91.7016ZM91.6216 72.92L90.9145 72.2129L90.9145 72.2129L91.6216 72.92ZM89.1616 68.15H90.1616V67.15H89.1616V68.15ZM87.5016 66V67H93.3616V66V65H87.5016V66ZM93.3616 66V67C93.2741 67 93.1753 66.9834 93.0761 66.9416C92.9774 66.9001 92.9004 66.843 92.8445 66.7871L93.5516 66.08L94.2587 65.3729C94.0239 65.138 93.7085 65 93.3616 65V66ZM93.5516 66.08L92.8445 66.7871C92.7887 66.7313 92.7316 66.6543 92.69 66.5556C92.6482 66.4563 92.6316 66.3575 92.6316 66.27H93.6316H94.6316C94.6316 65.9231 94.4936 65.6078 94.2588 65.3729L93.5516 66.08ZM93.6316 66.27H92.6316V67.88H93.6316H94.6316V66.27H93.6316ZM93.6316 67.88H92.6316C92.6316 67.7925 92.6482 67.6937 92.69 67.5944C92.7316 67.4957 92.7887 67.4187 92.8445 67.3629L93.5516 68.07L94.2588 68.7771C94.4936 68.5422 94.6316 68.2269 94.6316 67.88H93.6316ZM93.5516 68.07L92.8445 67.3629C92.9004 67.307 92.9774 67.2499 93.0761 67.2084C93.1753 67.1666 93.2741 67.15 93.3616 67.15V68.15V69.15C93.7085 69.15 94.0239 69.012 94.2587 68.7771L93.5516 68.07ZM93.3616 68.15V67.15H91.7016V68.15V69.15H93.3616V68.15ZM91.7016 68.15H90.7016V72.73H91.7016H92.7016V68.15H91.7016ZM91.7016 72.73H90.7016C90.7016 72.6425 90.7182 72.5437 90.76 72.4444C90.8016 72.3457 90.8587 72.2687 90.9145 72.2129L91.6216 72.92L92.3287 73.6271C92.5636 73.3922 92.7016 73.0769 92.7016 72.73H91.7016ZM91.6216 72.92L90.9145 72.2129C90.9704 72.157 91.0474 72.0999 91.1461 72.0584C91.2453 72.0166 91.3441 72 91.4316 72V73V74C91.7785 74 92.0939 73.862 92.3287 73.6271L91.6216 72.92ZM91.4316 73V72H89.4316V73V74H91.4316V73ZM89.4316 73V72C89.5192 72 89.6179 72.0166 89.7172 72.0584C89.8159 72.0999 89.8929 72.157 89.9487 72.2129L89.2416 72.92L88.5345 73.6271C88.7694 73.862 89.0847 74 89.4316 74V73ZM89.2416 72.92L89.9487 72.2129C90.0046 72.2687 90.0617 72.3457 90.1033 72.4444C90.1451 72.5437 90.1616 72.6425 90.1616 72.73H89.1616H88.1616C88.1616 73.0769 88.2996 73.3922 88.5345 73.6271L89.2416 72.92ZM89.1616 72.73H90.1616V68.15H89.1616H88.1616V72.73H89.1616ZM89.1616 68.15V67.15H87.5016V68.15V69.15H89.1616V68.15ZM87.5016 68.15V67.15C87.5892 67.15 87.6879 67.1666 87.7872 67.2084C87.8859 67.2499 87.9629 67.307 88.0187 67.3629L87.3116 68.07L86.6045 68.7771C86.8394 69.012 87.1547 69.15 87.5016 69.15V68.15ZM87.3116 68.07L88.0187 67.3629C88.0746 67.4187 88.1317 67.4957 88.1733 67.5944C88.2151 67.6937 88.2316 67.7925 88.2316 67.88H87.2316H86.2316C86.2316 68.2269 86.3696 68.5422 86.6045 68.7771L87.3116 68.07ZM87.2316 67.88H88.2316V66.27H87.2316H86.2316V67.88H87.2316ZM87.2316 66.27H88.2316C88.2316 66.3575 88.2151 66.4563 88.1733 66.5556C88.1317 66.6543 88.0746 66.7313 88.0187 66.7871L87.3116 66.08L86.6045 65.3729C86.3696 65.6078 86.2316 65.9231 86.2316 66.27H87.2316ZM87.3116 66.08L88.0187 66.7871C87.9629 66.843 87.8859 66.9001 87.7872 66.9416C87.6879 66.9834 87.5892 67 87.5016 67V66V65C87.1547 65 86.8394 65.138 86.6045 65.3729L87.3116 66.08ZM96.9836 71.05H95.9836V72.05H96.9836V71.05ZM94.6636 72.92L95.3707 72.2129V72.2129L94.6636 72.92ZM94.6636 66.08L95.3707 66.7871V66.7871L94.6636 66.08ZM100.174 66.08L99.4665 66.7871L99.4665 66.7871L100.174 66.08ZM100.174 67.87L99.4665 67.1629L99.4665 67.1629L100.174 67.87ZM96.9836 67.95V66.95H95.9836V67.95H96.9836ZM96.9836 68.58H95.9836V69.58H96.9836V68.58ZM99.9536 68.66L100.661 67.9529V67.9529L99.9536 68.66ZM99.9536 70.34L100.661 71.0471L100.661 71.0471L99.9536 70.34ZM96.9836 70.42V69.42H95.9836V70.42H96.9836ZM96.9836 71.05V72.05H100.064V71.05V70.05H96.9836V71.05ZM100.064 71.05V72.05C99.976 72.05 99.8773 72.0334 99.778 71.9916C99.6793 71.9501 99.6023 71.893 99.5465 71.8371L100.254 71.13L100.961 70.4229C100.726 70.188 100.41 70.05 100.064 70.05V71.05ZM100.254 71.13L99.5465 71.8371C99.4906 71.7813 99.4335 71.7043 99.392 71.6056C99.3502 71.5063 99.3336 71.4075 99.3336 71.32H100.334H101.334C101.334 70.9731 101.196 70.6578 100.961 70.4229L100.254 71.13ZM100.334 71.32H99.3336V72.73H100.334H101.334V71.32H100.334ZM100.334 72.73H99.3336C99.3336 72.6425 99.3502 72.5437 99.392 72.4444C99.4335 72.3457 99.4906 72.2687 99.5465 72.2129L100.254 72.92L100.961 73.6271C101.196 73.3922 101.334 73.0769 101.334 72.73H100.334ZM100.254 72.92L99.5465 72.2129C99.6023 72.157 99.6793 72.0999 99.778 72.0584C99.8773 72.0166 99.976 72 100.064 72V73V74C100.41 74 100.726 73.862 100.961 73.6271L100.254 72.92ZM100.064 73V72H94.8536V73V74H100.064V73ZM94.8536 73V72C94.9411 72 95.0399 72.0166 95.1392 72.0584C95.2379 72.0999 95.3149 72.157 95.3707 72.2129L94.6636 72.92L93.9565 73.6271C94.1914 73.862 94.5067 74 94.8536 74V73ZM94.6636 72.92L95.3707 72.2129C95.4265 72.2687 95.4837 72.3457 95.5252 72.4444C95.567 72.5437 95.5836 72.6425 95.5836 72.73H94.5836H93.5836C93.5836 73.0769 93.7216 73.3922 93.9565 73.6271L94.6636 72.92ZM94.5836 72.73H95.5836V66.27H94.5836H93.5836V72.73H94.5836ZM94.5836 66.27H95.5836C95.5836 66.3575 95.567 66.4563 95.5252 66.5556C95.4837 66.6543 95.4265 66.7313 95.3707 66.7871L94.6636 66.08L93.9565 65.3729C93.7216 65.6078 93.5836 65.9231 93.5836 66.27H94.5836ZM94.6636 66.08L95.3707 66.7871C95.3149 66.843 95.2379 66.9001 95.1392 66.9416C95.0399 66.9834 94.9411 67 94.8536 67V66V65C94.5067 65 94.1914 65.138 93.9565 65.3729L94.6636 66.08ZM94.8536 66V67H99.9836V66V65H94.8536V66ZM99.9836 66V67C99.896 67 99.7973 66.9834 99.698 66.9416C99.5993 66.9001 99.5223 66.843 99.4665 66.7871L100.174 66.08L100.881 65.3729C100.646 65.138 100.33 65 99.9836 65V66ZM100.174 66.08L99.4665 66.7871C99.4106 66.7313 99.3535 66.6543 99.312 66.5556C99.2702 66.4563 99.2536 66.3575 99.2536 66.27H100.254H101.254C101.254 65.9231 101.116 65.6078 100.881 65.3729L100.174 66.08ZM100.254 66.27H99.2536V67.68H100.254H101.254V66.27H100.254ZM100.254 67.68H99.2536C99.2536 67.5925 99.2702 67.4937 99.312 67.3944C99.3535 67.2957 99.4106 67.2187 99.4665 67.1629L100.174 67.87L100.881 68.5771C101.116 68.3422 101.254 68.0269 101.254 67.68H100.254ZM100.174 67.87L99.4665 67.1629C99.5223 67.107 99.5993 67.0499 99.698 67.0084C99.7973 66.9666 99.896 66.95 99.9836 66.95V67.95V68.95C100.33 68.95 100.646 68.812 100.881 68.5771L100.174 67.87ZM99.9836 67.95V66.95H96.9836V67.95V68.95H99.9836V67.95ZM96.9836 67.95H95.9836V68.58H96.9836H97.9836V67.95H96.9836ZM96.9836 68.58V69.58H99.7636V68.58V67.58H96.9836V68.58ZM99.7636 68.58V69.58C99.676 69.58 99.5773 69.5634 99.478 69.5216C99.3793 69.4801 99.3023 69.423 99.2465 69.3671L99.9536 68.66L100.661 67.9529C100.426 67.718 100.11 67.58 99.7636 67.58V68.58ZM99.9536 68.66L99.2465 69.3671C99.1906 69.3113 99.1335 69.2343 99.092 69.1356C99.0502 69.0363 99.0336 68.9375 99.0336 68.85H100.034H101.034C101.034 68.5031 100.896 68.1878 100.661 67.9529L99.9536 68.66ZM100.034 68.85H99.0336V70.15H100.034H101.034V68.85H100.034ZM100.034 70.15H99.0336C99.0336 70.0625 99.0502 69.9637 99.092 69.8644C99.1335 69.7657 99.1906 69.6887 99.2465 69.6329L99.9536 70.34L100.661 71.0471C100.896 70.8122 101.034 70.4969 101.034 70.15H100.034ZM99.9536 70.34L99.2465 69.6329C99.3023 69.577 99.3793 69.5199 99.478 69.4784C99.5773 69.4366 99.676 69.42 99.7636 69.42V70.42V71.42C100.11 71.42 100.426 71.282 100.661 71.0471L99.9536 70.34ZM99.7636 70.42V69.42H96.9836V70.42V71.42H99.7636V70.42ZM96.9836 70.42H95.9836V71.05H96.9836H97.9836V70.42H96.9836Z" fill="black" mask="url(#path-10-outside-2_156_37)"/>
<path d="M33.5 98.5L39.0935 96.1449L44.5 103L39.5 106.5L35.927 102.662L33.5 98.5Z" fill="#12FE1A"/>
<path d="M96.5 42.3977L102.341 39.6302L105.5 42.3977L107 44L108.02 45.2907L109.5 47L104.5 50.5L100.347 46.0483L96.5 42.3977Z" fill="#12FE1A"/>
</svg>
